<?xml version="1.0" encoding="UTF-8" standalone="no"?>
<!-- Created with Inkscape (http://www.inkscape.org/) -->

<svg
   width="149.52719mm"
   height="149.52719mm"
   viewBox="0 0 149.52719 149.52719"
   version="1.1"
   id="svg5"
   inkscape:version="1.1.1 (3bf5ae0d25, 2021-09-20)"
   sodipodi:docname="drawing.svg"
   xmlns:inkscape="http://www.inkscape.org/namespaces/inkscape"
   xmlns:sodipodi="http://sodipodi.sourceforge.net/DTD/sodipodi-0.dtd"
   xmlns="http://www.w3.org/2000/svg"
   xmlns:svg="http://www.w3.org/2000/svg">
  <sodipodi:namedview
     id="namedview7"
     pagecolor="#ffffff"
     bordercolor="#666666"
     borderopacity="1.0"
     inkscape:pageshadow="2"
     inkscape:pageopacity="0.0"
     inkscape:pagecheckerboard="0"
     inkscape:document-units="mm"
     showgrid="false"
     inkscape:zoom="0.69664703"
     inkscape:cx="289.2426"
     inkscape:cy="317.95155"
     inkscape:window-width="1920"
     inkscape:window-height="1014"
     inkscape:window-x="0"
     inkscape:window-y="0"
     inkscape:window-maximized="1"
     inkscape:current-layer="layer1" />
  <defs
     id="defs2" />
  <g
     inkscape:label="Layer 1"
     inkscape:groupmode="layer"
     id="layer1"
     transform="translate(-27.509748,-64.07961)">
    <text
       xml:space="preserve"
       style="font-style:normal;font-weight:normal;font-size:10.5833px;line-height:1.25;font-family:sans-serif;fill:#008000;fill-opacity:1;stroke:none;stroke-width:0.264583"
       x="92.793213"
       y="139.82405"
       id="text3052"><tspan
         sodipodi:role="line"
         id="tspan3050"
         style="fill:#008000;stroke-width:0.264583"
         x="92.793213"
         y="139.82405" /></text>
    <g
       id="g5716">
      <path
         id="path31"
         style="fill:#008080;stroke:#000000;stroke-width:8.69291;stroke-miterlimit:4;stroke-dasharray:none"
         d="M 386.54492,246.53711 A 278.22443,278.22443 0 0 0 108.32031,524.76172 278.22443,278.22443 0 0 0 386.54492,802.98633 278.22443,278.22443 0 0 0 636.01172,647.78125 h 1.01367 v -2.01367 A 278.22443,278.22443 0 0 0 664.76953,524.76172 278.22443,278.22443 0 0 0 386.54492,246.53711 Z m 0.12305,23.98047 a 255.32088,255.32088 0 0 1 93.26953,17.72851 V 397.50391 H 272.81445 v -99.66016 a 255.32088,255.32088 0 0 1 113.85352,-27.32617 z m 114.52734,27.18359 a 255.32088,255.32088 0 0 1 106.10547,99.80274 H 501.19531 Z m -250.27734,12.09961 v 87.70313 h -84.33594 a 255.32088,255.32088 0 0 1 84.33594,-87.70313 z M 154.625,419.40039 h 96.29297 v 207.125 H 152.41406 A 255.32088,255.32088 0 0 1 131.34766,525.83984 255.32088,255.32088 0 0 1 154.625,419.40039 Z m 118.18945,0 H 479.9375 v 207.125 H 272.81445 Z m 228.38086,0 H 618.6543 a 255.32088,255.32088 0 0 1 23.33398,106.43945 255.32088,255.32088 0 0 1 -21.0664,100.68555 H 501.19531 Z M 163.08984,647.78125 h 87.82813 v 94.0957 a 255.32088,255.32088 0 0 1 -87.82813,-94.0957 z m 109.72461,0 H 479.9375 v 115.07813 a 255.32088,255.32088 0 0 1 -93.26953,18.30078 255.32088,255.32088 0 0 1 -113.85352,-27.32618 z m 228.38086,0 H 610.24609 A 255.32088,255.32088 0 0 1 501.19531,753.4668 Z"
         transform="scale(0.26458333)" />
      <text
         xml:space="preserve"
         style="font-style:normal;font-weight:normal;font-size:37.2672px;line-height:1.25;font-family:sans-serif;fill:#008080;fill-opacity:1;stroke:#1a1a1a;stroke-width:1.9;stroke-miterlimit:4;stroke-dasharray:none"
         x="139.75784"
         y="152.31723"
         id="text4130"><tspan
           sodipodi:role="line"
           id="tspan4128"
           style="fill:#008080;stroke:#1a1a1a;stroke-width:1.9;stroke-miterlimit:4;stroke-dasharray:none"
           x="139.75784"
           y="152.31723">X</tspan></text>
      <text
         xml:space="preserve"
         style="font-style:normal;font-weight:normal;font-size:45.141px;line-height:1.25;font-family:sans-serif;fill:#008080;fill-opacity:1;stroke:#1a1a1a;stroke-width:1.9;stroke-miterlimit:4;stroke-dasharray:none"
         x="84.346817"
         y="155.48195"
         id="text4860"><tspan
           sodipodi:role="line"
           id="tspan4858"
           style="fill:#008080;stroke:#1a1a1a;stroke-width:1.9;stroke-miterlimit:4;stroke-dasharray:none"
           x="84.346817"
           y="155.48195">O</tspan></text>
      <text
         xml:space="preserve"
         style="font-style:normal;font-weight:normal;font-size:37.2672px;line-height:1.25;font-family:sans-serif;fill:#008080;fill-opacity:1;stroke:#1a1a1a;stroke-width:1.9;stroke-miterlimit:4;stroke-dasharray:none"
         x="38.687111"
         y="152.31723"
         id="text5356"><tspan
           sodipodi:role="line"
           id="tspan5354"
           style="fill:#008080;stroke:#1a1a1a;stroke-width:1.9;stroke-miterlimit:4;stroke-dasharray:none"
           x="38.687111"
           y="152.31723">X</tspan></text>
      <text
         xml:space="preserve"
         style="font-style:normal;font-weight:normal;font-size:18.3234px;line-height:1.25;font-family:sans-serif;fill:#008080;fill-opacity:1;stroke:#1a1a1a;stroke-width:1.9;stroke-miterlimit:4;stroke-dasharray:none"
         x="135.11772"
         y="102.32866"
         id="text5360"><tspan
           sodipodi:role="line"
           id="tspan5358"
           style="fill:#008080;stroke:#1a1a1a;stroke-width:1.9;stroke-miterlimit:4;stroke-dasharray:none"
           x="135.11772"
           y="102.32866">O</tspan></text>
      <text
         xml:space="preserve"
         style="font-style:normal;font-weight:normal;font-size:16.8758px;line-height:1.25;font-family:sans-serif;fill:#008080;fill-opacity:1;stroke:#1a1a1a;stroke-width:1.9;stroke-miterlimit:4;stroke-dasharray:none"
         x="52.079159"
         y="185.93842"
         id="text5364"><tspan
           sodipodi:role="line"
           id="tspan5362"
           style="fill:#008080;stroke:#1a1a1a;stroke-width:1.9;stroke-miterlimit:4;stroke-dasharray:none"
           x="52.079159"
           y="185.93842">O</tspan></text>
      <text
         xml:space="preserve"
         style="font-style:normal;font-weight:normal;font-size:30.755px;line-height:1.25;font-family:sans-serif;fill:#008080;fill-opacity:1;stroke:#1a1a1a;stroke-width:1.9;stroke-miterlimit:4;stroke-dasharray:none"
         x="90.654686"
         y="200.21367"
         id="text5368"><tspan
           sodipodi:role="line"
           id="tspan5366"
           style="fill:#008080;stroke:#1a1a1a;stroke-width:1.9;stroke-miterlimit:4;stroke-dasharray:none"
           x="90.654686"
           y="200.21367">X</tspan></text>
      <rect
         style="fill:#ff0000;stroke:#ff0000;stroke-width:1.3;stroke-miterlimit:4;stroke-dasharray:none"
         id="rect5584"
         width="186.63794"
         height="2.0981259"
         x="-119.07795"
         y="168.10315"
         transform="rotate(-45)" />
    </g>
  </g>
</svg>
