<svg xmlns:xlink="http://www.w3.org/1999/xlink" width="500" height="100" viewBox="0 0 4047 949" fill="none" xmlns="http://www.w3.org/2000/svg"><path d="M1874.93 120.969C1874.54 100.807 1890.27 83.8997 1910.43 83.4688C1930.05 83.0495 1945.91 97.904 1947.43 117.469C1948.98 137.509 1934.45 155.212 1914.43 156.969C1893.64 158.793 1875.33 141.836 1874.93 120.969Z" stroke="#A88771" stroke-width="30px" stroke-linecap="round" stroke-linejoin="round" class="crCpaCEk_0" fill="none"></path><path stroke="#A88771" stroke-width="30px" stroke-linecap="round" stroke-linejoin="round" d="M1913,161L1913,382" class="crCpaCEk_1" fill="none"></path><path d="M1874.93 427.969C1874.54 407.807 1890.27 390.9 1910.43 390.469C1930.05 390.049 1945.91 404.904 1947.43 424.469C1948.98 444.509 1934.45 462.212 1914.43 463.969C1893.64 465.793 1875.33 448.836 1874.93 427.969Z" stroke="#A88771" stroke-width="30px" stroke-linecap="round" stroke-linejoin="round" class="crCpaCEk_2" fill="none"></path><path stroke="#A88771" stroke-width="30px" stroke-linecap="round" stroke-linejoin="round" d="M1907,481L1907,702" class="crCpaCEk_3" fill="none"></path><path d="M1874.93 752.969C1874.54 732.807 1890.27 715.9 1910.43 715.469C1930.05 715.049 1945.91 729.904 1947.43 749.469C1948.98 769.509 1934.45 787.212 1914.43 788.969C1893.64 790.793 1875.33 773.836 1874.93 752.969Z" stroke="#A88771" stroke-width="30px" stroke-linecap="round" stroke-linejoin="round" class="crCpaCEk_4" fill="none"></path><path d="M1915.35 161.646C1915.35 161.646 1906.99 211 1934.99 240.5C1962.99 270 2063.99 299 2105.49 323C2146.99 347 2149.99 404.5 2149.99 404.5" stroke="#A88771" stroke-width="30px" stroke-linecap="round" stroke-linejoin="round" class="crCpaCEk_5" fill="none"></path><path d="M2115 427.5C2114.61 407.338 2130.33 390.431 2150.5 390C2170.11 389.581 2185.98 404.435 2187.49 424C2189.05 444.041 2174.52 461.743 2154.5 463.5C2133.7 465.324 2115.4 448.367 2115 427.5Z" stroke="#A88771" stroke-width="30px" stroke-linecap="round" stroke-linejoin="round" class="crCpaCEk_6" fill="none"></path><path d="M1915.65 470.76C1915.65 470.76 1907.3 520.115 1935.3 549.614C1963.3 579.114 2064.3 608.115 2105.8 632.115C2147.3 656.114 2150.3 713.615 2150.3 713.615" stroke="#A88771" stroke-width="30px" stroke-linecap="round" stroke-linejoin="round" class="crCpaCEk_7" fill="none"></path><path stroke="#A88771" stroke-width="30px" stroke-linecap="round" stroke-linejoin="round" d="M2153.99,470L2153.99,691" class="crCpaCEk_8" fill="none"></path><path d="M2115.3 736.615C2114.91 716.452 2130.64 699.545 2150.8 699.115C2170.42 698.695 2186.29 713.55 2187.8 733.115C2189.35 753.155 2174.82 770.858 2154.8 772.615C2134.01 774.439 2115.71 757.482 2115.3 736.615Z" stroke="#A88771" stroke-width="30px" stroke-linecap="round" stroke-linejoin="round" class="crCpaCEk_9" fill="none"></path><path d="M2170 692C2170 692 2171.69 685.976 2207.34 646.988C2243 608 2267.5 591 2326.5 580.5C2385.5 570 2443.5 591.501 2443.5 591.501" stroke="#A88771" stroke-width="30px" stroke-linecap="round" stroke-linejoin="round" class="crCpaCEk_10" fill="none"></path><path d="M2170.87 676.516C2170.87 676.516 2259.92 509.35 2347.99 430C2448.99 339 2487.5 327.5 2596.49 327.5C2691.99 327.5 2771.97 359.154 2781.49 444C2786.24 486.301 2786.89 526.423 2750.49 548.5C2711.21 572.33 2664.62 554.216 2636.99 517.5C2609.88 481.456 2618.55 443.163 2636.99 402C2667.88 333.066 2740.02 324.515 2815.49 327.5C2907.51 331.139 3012.87 456.516 3012.87 456.516" stroke="#A88771" stroke-width="30px" stroke-linecap="round" stroke-linejoin="round" class="crCpaCEk_11" fill="none"></path><path d="M2985.48 488.969C2985.09 468.806 3000.82 451.899 3020.98 451.469C3040.6 451.049 3056.47 465.904 3057.98 485.469C3059.53 505.509 3045.01 523.212 3024.98 524.969C3004.19 526.793 2985.89 509.836 2985.48 488.969Z" stroke="#A88771" stroke-width="30px" stroke-linecap="round" stroke-linejoin="round" class="crCpaCEk_12" fill="none"></path><path d="M2503.99 335C2503.99 335 2548.16 294.404 2562.45 260.196C2576.32 227.027 2569.99 156.5 2569.99 156.5" stroke="#A88771" stroke-width="30px" stroke-linecap="round" stroke-linejoin="round" class="crCpaCEk_13" fill="none"></path><path d="M2528 321C2528 321 2628.15 304.349 2652.95 253.196C2663.19 232.099 2669.49 172.5 2669.49 172.5" stroke="#A88771" stroke-width="30px" stroke-linecap="round" stroke-linejoin="round" class="crCpaCEk_14" fill="none"></path><path transform="matrix(1 0 0 -1 3060 474)" stroke="#A88771" stroke-width="30px" stroke-linecap="round" stroke-linejoin="round" d="M15,-15L811,-15" class="crCpaCEk_15" fill="none"></path><path d="M3822.59 364.327C3798.78 376.947 3802.29 403.997 3791.55 428.713C3781.69 451.406 3759.08 454.205 3762.61 478.697C3765.94 501.848 3785.01 501.684 3796.97 521.784C3810.71 544.866 3802.72 571.229 3825.9 584.803C3850.27 599.076 3860.7 575.156 3888.93 574.109C3913.33 573.204 3935.17 592.913 3955.96 580.101C3977.39 566.903 3962.95 540.63 3975.02 518.553C3986.06 498.376 4011.28 495.858 4012.19 472.88C4013.19 447.776 3985 444.146 3972.01 422.64C3957.88 399.251 3965.57 374.161 3942.11 363.212C3918.65 352.263 3906.4 374.631 3880.51 374.656C3853.83 374.681 3846.17 351.831 3822.59 364.327Z" stroke="#B53A25" stroke-width="34px" stroke-linecap="round" stroke-linejoin="round" class="crCpaCEk_16" fill="none"></path><path d="M3836.77 389.425C3818.17 399.285 3820.92 420.421 3812.53 439.733C3804.82 457.465 3787.15 459.652 3789.91 478.788C3792.51 496.878 3807.41 496.75 3816.76 512.455C3827.49 530.49 3821.25 551.089 3839.36 561.695C3858.41 572.848 3866.55 554.158 3888.61 553.34C3907.68 552.632 3924.74 568.032 3940.99 558.021C3957.73 547.709 3946.45 527.18 3955.88 509.93C3964.5 494.165 3984.21 492.197 3984.92 474.243C3985.71 454.628 3963.67 451.792 3953.53 434.988C3942.49 416.713 3948.5 397.108 3930.16 388.553C3911.83 379.999 3902.26 397.476 3882.03 397.495C3861.18 397.515 3855.2 379.661 3836.77 389.425Z" stroke="#B53A25" stroke-width="34px" stroke-linecap="round" stroke-linejoin="round" class="crCpaCEk_17" fill="none"></path><path d="M3844.98 404.221C3829.58 412.386 3831.86 429.887 3824.91 445.878C3818.53 460.561 3803.9 462.372 3806.18 478.219C3808.33 493.198 3820.67 493.092 3828.41 506.096C3837.3 521.03 3832.13 538.087 3847.13 546.87C3862.9 556.105 3869.64 540.628 3887.91 539.951C3903.7 539.365 3917.82 552.117 3931.28 543.828C3945.14 535.288 3935.8 518.289 3943.61 504.006C3950.75 490.951 3967.07 489.322 3967.66 474.455C3968.31 458.212 3950.06 455.864 3941.66 441.949C3932.52 426.817 3937.5 410.583 3922.32 403.499C3907.14 396.415 3899.21 410.887 3882.46 410.903C3865.2 410.92 3860.24 396.136 3844.98 404.221Z" stroke="#B9C6B4" stroke-width="29px" stroke-linecap="round" stroke-linejoin="round" class="crCpaCEk_18" fill="none"></path><path d="M3855.38 421.252C3843.63 427.48 3845.36 440.832 3840.06 453.031C3835.19 464.233 3824.03 465.614 3825.77 477.703C3827.42 489.13 3836.83 489.049 3842.74 498.97C3849.52 510.363 3845.57 523.376 3857.01 530.076C3869.04 537.121 3874.19 525.314 3888.12 524.797C3900.17 524.351 3910.95 534.079 3921.21 527.755C3931.79 521.24 3924.66 508.272 3930.62 497.375C3936.07 487.417 3948.51 486.173 3948.97 474.832C3949.46 462.441 3935.54 460.649 3929.13 450.034C3922.16 438.49 3925.96 426.105 3914.38 420.701C3902.8 415.297 3896.75 426.337 3883.97 426.35C3870.8 426.362 3867.02 415.084 3855.38 421.252Z" stroke="#B9C6B4" stroke-width="29px" stroke-linecap="round" stroke-linejoin="round" class="crCpaCEk_19" fill="none"></path><path d="M3855.19 455.772C3843.89 473.772 3850.98 498.415 3869.86 508.184C3888.64 517.903 3912.61 509.693 3920.95 490.261C3928.67 472.271 3921.28 452.274 3904 443.088C3886.61 433.848 3865.66 439.094 3855.19 455.772Z" stroke="#B53A25" stroke-width="21px" stroke-linecap="round" stroke-linejoin="round" class="crCpaCEk_20" fill="none"></path><path d="M3861.71 459.341C3852.87 473.426 3858.42 492.708 3873.19 500.352C3887.88 507.957 3906.65 501.534 3913.17 486.328C3919.21 472.251 3913.43 456.604 3899.9 449.417C3886.29 442.186 3869.91 446.291 3861.71 459.341Z" stroke="#B53A25" stroke-width="21px" stroke-linecap="round" stroke-linejoin="round" class="crCpaCEk_21" fill="none"></path><path d="M3881.54 484.805C3876 481.937 3874.07 474.607 3877.19 469.635C3880.18 464.874 3886.1 463.241 3891.38 466.045C3896.63 468.837 3898.59 474.559 3896.39 479.704C3894.08 485.084 3887.06 487.665 3881.54 484.805Z" stroke="#B9C6B4" stroke-width="21px" stroke-linecap="round" stroke-linejoin="round" class="crCpaCEk_22" fill="none"></path><path d="M3345.15 386.722C3296.41 435.165 3300.16 488.694 3300.16 488.694C3300.16 488.694 3312.16 454.203 3345.15 451.579C3378.14 448.955 3412.42 447.138 3438.5 418.588C3459.61 395.47 3465.86 343.233 3465.86 343.233C3465.86 343.233 3380.69 351.396 3345.15 386.722Z" stroke="#A88771" stroke-width="18px" stroke-linecap="round" stroke-linejoin="round" class="crCpaCEk_23" fill="none"></path><path d="M3348.9 395.797C3303.65 435.637 3301.72 478.13 3301.72 478.13C3301.72 478.13 3314.99 450.368 3342.77 447.404C3370.54 444.44 3399.32 442.084 3423.78 418.674C3443.58 399.718 3453.74 357.988 3453.74 357.988C3453.74 357.988 3381.89 366.745 3348.9 395.797Z" stroke="#A88771" stroke-width="18px" stroke-linecap="round" stroke-linejoin="round" class="crCpaCEk_24" fill="none"></path><path d="M3341.65 400.865C3301.46 437.168 3301.72 478.13 3301.72 478.13C3301.72 478.13 3312.73 451.949 3338.44 450.43C3364.14 448.91 3390.82 448.027 3412.44 426.593C3429.96 409.237 3437.39 369.41 3437.39 369.41C3437.39 369.41 3370.95 374.393 3341.65 400.865Z" stroke="#A88771" stroke-width="18px" stroke-linecap="round" stroke-linejoin="round" class="crCpaCEk_25" fill="none"></path><path d="M3347.77 409.434C3311.03 440.49 3306.67 470.448 3306.67 470.448C3306.67 470.448 3318.55 450.055 3339.64 446.076C3360.72 442.097 3382.52 438.477 3402.51 420.375C3418.7 405.716 3429.19 375.731 3429.19 375.731C3429.19 375.731 3374.57 386.788 3347.77 409.434Z" stroke="#A88771" stroke-width="18px" stroke-linecap="round" stroke-linejoin="round" class="crCpaCEk_26" fill="none"></path><path d="M3355.61 415.345C3328.9 437.299 3324.41 456.907 3324.41 456.907C3324.41 456.907 3333.56 443.109 3348.19 439.47C3362.82 435.83 3377.91 432.387 3392.5 419.663C3404.32 409.359 3413.01 389.424 3413.01 389.424C3413.01 389.424 3375.08 399.337 3355.61 415.345Z" stroke="#A88771" stroke-width="18px" stroke-linecap="round" stroke-linejoin="round" class="crCpaCEk_27" fill="none"></path><path d="M3368.2 418.997C3346.98 435.615 3341.63 448.292 3341.63 448.292C3341.63 448.292 3349.6 438.701 3360.29 434.805C3370.98 430.91 3381.97 427.083 3393.65 417.551C3403.1 409.832 3411.44 396.482 3411.44 396.482C3411.44 396.482 3383.68 406.879 3368.2 418.997Z" stroke="#A88771" stroke-width="18px" stroke-linecap="round" stroke-linejoin="round" class="crCpaCEk_28" fill="none"></path><path d="M3345 598.444C3296.27 550 3300.02 496.472 3300.02 496.472C3300.02 496.472 3312.01 530.962 3345 533.587C3378 536.211 3412.28 538.027 3438.35 566.578C3459.47 589.696 3465.72 641.932 3465.72 641.932C3465.72 641.932 3380.54 633.769 3345 598.444Z" stroke="#A88771" stroke-width="18px" stroke-linecap="round" stroke-linejoin="round" class="crCpaCEk_29" fill="none"></path><path d="M3348.76 589.369C3303.51 549.528 3301.58 507.035 3301.58 507.035C3301.58 507.035 3314.85 534.798 3342.62 537.762C3370.4 540.726 3399.18 543.082 3423.63 566.491C3443.44 585.447 3453.59 627.178 3453.59 627.178C3453.59 627.178 3381.75 618.421 3348.76 589.369Z" stroke="#A88771" stroke-width="18px" stroke-linecap="round" stroke-linejoin="round" class="crCpaCEk_30" fill="none"></path><path d="M3341.5 584.3C3301.32 547.997 3301.58 507.035 3301.58 507.035C3301.58 507.035 3312.59 533.216 3338.29 534.736C3364 536.255 3390.67 537.138 3412.3 558.572C3429.82 575.928 3437.25 615.756 3437.25 615.756C3437.25 615.756 3370.81 610.773 3341.5 584.3Z" stroke="#A88771" stroke-width="18px" stroke-linecap="round" stroke-linejoin="round" class="crCpaCEk_31" fill="none"></path><path d="M3347.63 575.732C3310.89 544.675 3306.53 514.717 3306.53 514.717C3306.53 514.717 3318.4 535.111 3339.49 539.089C3360.58 543.068 3382.38 546.688 3402.37 564.791C3418.56 579.449 3429.05 609.434 3429.05 609.434C3429.05 609.434 3374.43 598.378 3347.63 575.732Z" stroke="#A88771" stroke-width="18px" stroke-linecap="round" stroke-linejoin="round" class="crCpaCEk_32" fill="none"></path><path d="M3355.46 569.82C3328.76 547.867 3324.26 528.259 3324.26 528.259C3324.26 528.259 3333.42 542.056 3348.05 545.696C3362.67 549.335 3377.77 552.779 3392.36 565.503C3404.17 575.806 3412.86 595.741 3412.86 595.741C3412.86 595.741 3374.94 585.829 3355.46 569.82Z" stroke="#A88771" stroke-width="18px" stroke-linecap="round" stroke-linejoin="round" class="crCpaCEk_33" fill="none"></path><path d="M3368.06 566.169C3346.83 549.551 3341.48 536.873 3341.48 536.873C3341.48 536.873 3349.46 546.464 3360.15 550.36C3370.83 554.256 3381.83 558.082 3393.51 567.615C3402.96 575.334 3411.3 588.683 3411.3 588.683C3411.3 588.683 3383.53 578.287 3368.06 566.169Z" stroke="#A88771" stroke-width="18px" stroke-linecap="round" stroke-linejoin="round" class="crCpaCEk_34" fill="none"></path><path d="M3130 488.478C3130 488.478 3171.91 459.845 3198.99 429.5C3226.08 399.154 3246.99 313.369 3315.99 278C3384.99 242.63 3488.49 247.5 3488.49 247.5" stroke="#A88771" stroke-width="30px" stroke-linecap="round" stroke-linejoin="round" class="crCpaCEk_35" fill="none"></path><path d="M3489.48 255.969C3489.09 235.806 3504.82 218.899 3524.98 218.469C3544.6 218.049 3560.47 232.904 3561.98 252.469C3563.53 272.509 3549.01 290.212 3528.98 291.969C3508.19 293.793 3489.89 276.836 3489.48 255.969Z" stroke="#A88771" stroke-width="30px" stroke-linecap="round" stroke-linejoin="round" class="crCpaCEk_36" fill="none"></path><path d="M3139.62 484.555C3139.62 484.555 3181.53 513.187 3208.61 543.532C3235.7 573.878 3256.61 659.663 3325.61 695.033C3394.61 730.402 3498.11 725.533 3498.11 725.533" stroke="#A88771" stroke-width="30px" stroke-linecap="round" stroke-linejoin="round" class="crCpaCEk_37" fill="none"></path><path d="M3489.48 713.969C3489.09 693.806 3504.82 676.899 3524.98 676.469C3544.6 676.049 3560.47 690.904 3561.98 710.469C3563.53 730.509 3549.01 748.212 3528.98 749.969C3508.19 751.793 3489.89 734.836 3489.48 713.969Z" stroke="#A88771" stroke-width="30px" stroke-linecap="round" stroke-linejoin="round" class="crCpaCEk_38" fill="none"></path><path d="M3483.2 490.242C3483.2 490.242 3570.18 432.387 3620.36 387.398C3668.99 343.802 3696.4 243.173 3696.4 243.173" stroke="#A88771" stroke-width="30px" stroke-linecap="round" stroke-linejoin="round" class="crCpaCEk_39" fill="none"></path><path d="M3726.52 271.856C3710.74 271.518 3707.77 255.595 3694.02 247.856C3680.05 239.995 3663.36 246.604 3656.02 232.356C3649.21 219.143 3661.74 209.698 3662.52 194.856C3663.45 177.238 3648.75 164.547 3658.52 149.856C3667.55 136.268 3683.72 143.573 3697.52 134.856C3708.75 127.762 3709.96 114.767 3723.02 112.356C3739.81 109.255 3745.24 127.221 3760.52 134.856C3774.14 141.664 3788.06 137.187 3796.52 149.856C3806.33 164.564 3791.13 177.178 3791.52 194.856C3791.84 209.627 3803.63 219.408 3796.52 232.356C3789.15 245.771 3773.9 240.417 3760.52 247.856C3746.31 255.754 3742.77 272.204 3726.52 271.856Z" stroke="#B9C6B4" stroke-width="25px" stroke-linecap="round" stroke-linejoin="round" class="crCpaCEk_40" fill="none"></path><path d="M3728.22 248.996C3716.86 248.755 3714.72 237.4 3704.81 231.881C3694.76 226.275 3682.74 230.989 3677.45 220.828C3672.55 211.405 3681.57 204.67 3682.13 194.086C3682.8 181.522 3672.22 172.472 3679.25 161.996C3685.76 152.306 3697.4 157.515 3707.34 151.299C3715.42 146.24 3716.29 136.973 3725.7 135.254C3737.79 133.043 3741.7 145.855 3752.7 151.299C3762.51 156.154 3772.53 152.961 3778.62 161.996C3785.69 172.484 3774.74 181.48 3775.02 194.086C3775.25 204.619 3783.74 211.594 3778.62 220.828C3773.31 230.394 3762.33 226.577 3752.7 231.881C3742.47 237.514 3739.92 249.244 3728.22 248.996Z" stroke="#F74700" stroke-width="27px" stroke-linecap="round" stroke-linejoin="round" class="crCpaCEk_41" fill="none"></path><path d="M3727.29 232.997C3718.96 232.822 3717.39 224.554 3710.13 220.536C3702.76 216.455 3693.94 219.886 3690.07 212.489C3686.47 205.628 3693.08 200.725 3693.5 193.019C3693.99 183.871 3686.23 177.282 3691.39 169.655C3696.16 162.6 3704.69 166.392 3711.98 161.867C3717.91 158.184 3718.55 151.437 3725.44 150.185C3734.31 148.575 3737.18 157.903 3745.25 161.867C3752.44 165.402 3759.79 163.077 3764.25 169.655C3769.44 177.291 3761.41 183.841 3761.61 193.019C3761.78 200.688 3768.01 205.766 3764.25 212.489C3760.36 219.454 3752.31 216.674 3745.25 220.536C3737.74 224.637 3735.87 233.178 3727.29 232.997Z" stroke="#F74700" stroke-width="27px" stroke-linecap="round" stroke-linejoin="round" class="crCpaCEk_42" fill="none"></path><path d="M3726.59 208.451C3716.91 208.503 3708.95 199.875 3709.67 190.683C3710.35 181.942 3717.38 175.424 3726.59 175.474C3735.75 175.524 3742.65 181.98 3743.33 190.683C3744.04 199.846 3736.24 208.398 3726.59 208.451Z" stroke="#B9C6B4" stroke-width="26px" stroke-linecap="round" stroke-linejoin="round" class="crCpaCEk_43" fill="none"></path><path d="M3721.72 191.393C3721.51 194.125 3723.79 196.513 3726.53 196.498C3729.26 196.483 3731.5 194.111 3731.29 191.393C3731.1 188.878 3729.05 187.038 3726.53 187.024C3723.99 187.01 3721.92 188.863 3721.72 191.393Z" stroke="#F74700" stroke-width="10px" stroke-linecap="round" stroke-linejoin="round" class="crCpaCEk_44" fill="none"></path><path d="M3497.31 491.603C3497.31 491.603 3587.11 544.961 3639.52 587.341C3690.3 628.409 3722.79 727.515 3722.79 727.515" stroke="#A88771" stroke-width="30px" stroke-linecap="round" stroke-linejoin="round" class="crCpaCEk_45" fill="none"></path><path d="M3734.52 842.856C3718.74 842.518 3715.77 826.595 3702.02 818.856C3688.05 810.995 3671.36 817.604 3664.02 803.356C3657.21 790.143 3669.74 780.698 3670.52 765.856C3671.45 748.238 3656.75 735.547 3666.52 720.856C3675.55 707.268 3691.72 714.573 3705.52 705.856C3716.75 698.762 3717.96 685.767 3731.02 683.356C3747.81 680.255 3753.24 698.221 3768.52 705.856C3782.14 712.664 3796.06 708.187 3804.52 720.856C3814.33 735.564 3799.13 748.178 3799.52 765.856C3799.84 780.627 3811.63 790.408 3804.52 803.356C3797.15 816.771 3781.9 811.417 3768.52 818.856C3754.31 826.754 3750.77 843.204 3734.52 842.856Z" stroke="#B9C6B4" stroke-width="25px" stroke-linecap="round" stroke-linejoin="round" class="crCpaCEk_46" fill="none"></path><path d="M3736.22 819.996C3724.86 819.755 3722.72 808.4 3712.81 802.881C3702.76 797.275 3690.74 801.989 3685.45 791.828C3680.55 782.405 3689.57 775.67 3690.13 765.086C3690.8 752.522 3680.22 743.472 3687.25 732.996C3693.76 723.306 3705.4 728.515 3715.34 722.299C3723.42 717.24 3724.29 707.973 3733.7 706.254C3745.79 704.043 3749.7 716.855 3760.7 722.299C3770.51 727.154 3780.53 723.961 3786.62 732.996C3793.69 743.484 3782.74 752.48 3783.02 765.086C3783.25 775.619 3791.74 782.594 3786.62 791.828C3781.31 801.394 3770.33 797.577 3760.7 802.881C3750.47 808.514 3747.92 820.244 3736.22 819.996Z" stroke="#F74700" stroke-width="27px" stroke-linecap="round" stroke-linejoin="round" class="crCpaCEk_47" fill="none"></path><path d="M3735.29 803.997C3726.96 803.822 3725.39 795.554 3718.13 791.536C3710.76 787.455 3701.94 790.886 3698.07 783.489C3694.47 776.628 3701.08 771.725 3701.5 764.019C3701.99 754.871 3694.23 748.282 3699.39 740.655C3704.16 733.6 3712.69 737.392 3719.98 732.867C3725.91 729.184 3726.55 722.437 3733.44 721.185C3742.31 719.575 3745.18 728.903 3753.25 732.867C3760.44 736.402 3767.79 734.077 3772.25 740.655C3777.44 748.291 3769.41 754.841 3769.61 764.019C3769.78 771.688 3776.01 776.766 3772.25 783.489C3768.36 790.454 3760.31 787.674 3753.25 791.536C3745.74 795.637 3743.87 804.178 3735.29 803.997Z" stroke="#F74700" stroke-width="27px" stroke-linecap="round" stroke-linejoin="round" class="crCpaCEk_48" fill="none"></path><path d="M3734.59 779.451C3724.91 779.503 3716.95 770.875 3717.67 761.683C3718.35 752.942 3725.38 746.424 3734.59 746.474C3743.75 746.524 3750.65 752.98 3751.33 761.683C3752.04 770.846 3744.24 779.398 3734.59 779.451Z" stroke="#B9C6B4" stroke-width="26px" stroke-linecap="round" stroke-linejoin="round" class="crCpaCEk_49" fill="none"></path><path d="M3729.72 762.393C3729.51 765.125 3731.79 767.513 3734.53 767.498C3737.26 767.483 3739.5 765.111 3739.29 762.393C3739.1 759.878 3737.05 758.038 3734.53 758.024C3731.99 758.01 3729.92 759.863 3729.72 762.393Z" stroke="#F74700" stroke-width="10px" stroke-linecap="round" stroke-linejoin="round" class="crCpaCEk_50" fill="none"></path><path d="M1909 172.5C1909 172.5 1819 338.5 1740.4 443.509C1658.93 552.345 1612 606.499 1503 606.5C1407.5 606.5 1298.21 569.914 1272.5 488.5C1265.08 465 1259.6 418.077 1296 396C1335.28 372.17 1382.37 374.645 1410 411.362C1437.12 447.405 1428.44 485.699 1410 526.862C1379.12 595.796 1308.48 609.485 1233 606.5C1140.99 602.861 1046 521 1046 521" stroke="#A88771" stroke-width="30px" stroke-linecap="round" stroke-linejoin="round" class="crCpaCEk_51" fill="none"></path><path d="M996.487 482.969C996.097 462.806 1011.83 445.899 1031.99 445.469C1051.61 445.049 1067.47 459.904 1068.99 479.469C1070.54 499.509 1056.01 517.212 1035.99 518.969C1015.2 520.793 996.891 503.836 996.487 482.969Z" stroke="#A88771" stroke-width="30px" stroke-linecap="round" stroke-linejoin="round" class="crCpaCEk_52" fill="none"></path><path d="M1620 344.668C1620 344.668 1731.81 352.952 1791.03 320.767C1848.41 289.579 1898.32 198 1898.32 198" stroke="#A88771" stroke-width="30px" stroke-linecap="round" stroke-linejoin="round" class="crCpaCEk_53" fill="none"></path><path d="M1567.37 597.827C1567.37 597.827 1523.69 638.949 1509.81 673.326C1496.34 706.66 1503.51 777.106 1503.51 777.106" stroke="#A88771" stroke-width="30px" stroke-linecap="round" stroke-linejoin="round" class="crCpaCEk_54" fill="none"></path><path d="M1543.53 612.114C1543.53 612.114 1443.59 629.965 1419.4 681.412C1409.42 702.63 1403.83 762.301 1403.83 762.301" stroke="#A88771" stroke-width="30px" stroke-linecap="round" stroke-linejoin="round" class="crCpaCEk_55" fill="none"></path><path stroke="#A88771" stroke-width="30px" stroke-linecap="round" stroke-linejoin="round" d="M980,490.11L184,490.11" class="crCpaCEk_56" fill="none"></path><path d="M97.192 376.327C73.3807 388.947 76.9007 415.997 66.16 440.713C56.298 463.406 33.6876 466.205 37.2117 490.697C40.5429 513.848 59.6161 513.684 71.5783 533.784C85.3156 556.866 77.3257 583.229 100.504 596.803C124.878 611.076 135.305 587.156 163.531 586.109C187.941 585.204 209.771 604.913 230.567 592.101C251.991 578.903 237.557 552.63 249.63 530.553C260.664 510.376 285.882 507.858 286.799 484.88C287.8 459.776 259.603 456.146 246.614 434.64C232.488 411.251 240.176 386.161 216.716 375.212C193.255 364.263 181.008 386.631 155.118 386.656C128.433 386.681 120.771 363.831 97.192 376.327Z" stroke="#B53A25" stroke-width="34px" stroke-linecap="round" stroke-linejoin="round" class="crCpaCEk_57" fill="none"></path><path d="M111.379 401.425C92.7739 411.285 95.5242 432.421 87.1319 451.733C79.4262 469.465 61.7594 471.652 64.5129 490.788C67.1158 508.878 82.0188 508.75 91.3656 524.455C102.099 542.49 95.8564 563.089 113.967 573.695C133.011 584.848 141.159 566.158 163.214 565.34C182.286 564.632 199.343 580.032 215.593 570.021C232.332 559.709 221.055 539.18 230.488 521.93C239.109 506.165 258.814 504.197 259.53 486.243C260.313 466.628 238.28 463.792 228.131 446.988C217.094 428.713 223.101 409.108 204.77 400.553C186.439 391.999 176.869 409.476 156.64 409.495C135.789 409.515 129.803 391.661 111.379 401.425Z" stroke="#B53A25" stroke-width="34px" stroke-linecap="round" stroke-linejoin="round" class="crCpaCEk_58" fill="none"></path><path d="M119.59 416.221C104.184 424.386 106.461 441.887 99.5119 457.878C93.1311 472.561 78.5021 474.372 80.7822 490.219C82.9375 505.198 95.2779 505.092 103.018 518.096C111.906 533.03 106.736 550.087 121.733 558.87C137.502 568.105 144.249 552.628 162.512 551.951C178.305 551.365 192.429 564.117 205.884 555.828C219.745 547.288 210.407 530.289 218.218 516.006C225.357 502.951 241.673 501.322 242.266 486.455C242.914 470.212 224.67 467.864 216.266 453.949C207.127 438.817 212.101 422.583 196.922 415.499C181.743 408.415 173.819 422.887 157.068 422.903C139.803 422.92 134.845 408.136 119.59 416.221Z" stroke="#B9C6B4" stroke-width="29px" stroke-linecap="round" stroke-linejoin="round" class="crCpaCEk_59" fill="none"></path><path d="M129.986 433.252C118.233 439.48 119.97 452.832 114.669 465.031C109.801 476.233 98.6406 477.614 100.38 489.703C102.024 501.13 111.439 501.049 117.343 510.97C124.124 522.363 120.18 535.376 131.62 542.076C143.651 549.121 148.798 537.314 162.73 536.797C174.778 536.351 185.553 546.079 195.818 539.755C206.393 533.24 199.268 520.272 205.227 509.375C210.674 499.417 223.121 498.173 223.573 486.832C224.068 474.441 210.15 472.649 203.739 462.034C196.766 450.49 200.561 438.105 188.981 432.701C177.401 427.297 171.356 438.337 158.577 438.35C145.406 438.362 141.624 427.084 129.986 433.252Z" stroke="#B9C6B4" stroke-width="29px" stroke-linecap="round" stroke-linejoin="round" class="crCpaCEk_60" fill="none"></path><path d="M129.796 467.772C118.494 485.772 125.587 510.415 144.463 520.184C163.243 529.903 187.22 521.693 195.559 502.261C203.278 484.271 195.889 464.274 178.602 455.088C161.212 445.848 140.268 451.094 129.796 467.772Z" stroke="#B53A25" stroke-width="21px" stroke-linecap="round" stroke-linejoin="round" class="crCpaCEk_61" fill="none"></path><path d="M136.318 471.341C127.474 485.426 133.024 504.708 147.794 512.352C162.49 519.957 181.251 513.534 187.776 498.328C193.816 484.251 188.034 468.604 174.507 461.417C160.9 454.186 144.512 458.291 136.318 471.341Z" stroke="#B53A25" stroke-width="21px" stroke-linecap="round" stroke-linejoin="round" class="crCpaCEk_62" fill="none"></path><path d="M156.144 496.805C150.601 493.937 148.671 486.607 151.793 481.635C154.782 476.874 160.707 475.241 165.982 478.045C171.237 480.837 173.2 486.559 170.992 491.704C168.683 497.084 161.671 499.665 156.144 496.805Z" stroke="#B9C6B4" stroke-width="21px" stroke-linecap="round" stroke-linejoin="round" class="crCpaCEk_63" fill="none"></path><path d="M698.853 596.444C747.59 548 743.841 494.471 743.841 494.471C743.841 494.471 731.844 528.962 698.853 531.587C665.862 534.211 631.577 536.027 605.503 564.578C584.39 587.696 578.135 639.932 578.135 639.932C578.135 639.932 663.314 631.769 698.853 596.444Z" stroke="#A88771" stroke-width="18px" stroke-linecap="round" stroke-linejoin="round" class="crCpaCEk_64" fill="none"></path><path d="M695.1 587.369C740.346 547.528 742.28 505.035 742.28 505.035C742.28 505.035 729.008 532.798 701.233 535.762C673.457 538.726 644.679 541.082 620.224 564.491C600.421 583.447 590.263 625.178 590.263 625.178C590.263 625.178 662.107 616.421 695.1 587.369Z" stroke="#A88771" stroke-width="18px" stroke-linecap="round" stroke-linejoin="round" class="crCpaCEk_65" fill="none"></path><path d="M702.353 582.3C742.537 545.997 742.28 505.035 742.28 505.035C742.28 505.035 731.271 531.216 705.563 532.736C679.855 534.255 653.184 535.138 631.555 556.572C614.042 573.928 606.608 613.756 606.608 613.756C606.608 613.756 673.051 608.773 702.353 582.3Z" stroke="#A88771" stroke-width="18px" stroke-linecap="round" stroke-linejoin="round" class="crCpaCEk_66" fill="none"></path><path d="M696.226 573.732C732.971 542.675 737.329 512.717 737.329 512.717C737.329 512.717 725.452 533.111 704.364 537.089C683.277 541.068 661.476 544.688 641.487 562.791C625.302 577.449 614.812 607.434 614.812 607.434C614.812 607.434 669.432 596.378 696.226 573.732Z" stroke="#A88771" stroke-width="18px" stroke-linecap="round" stroke-linejoin="round" class="crCpaCEk_67" fill="none"></path><path d="M688.393 567.82C715.099 545.867 719.592 526.259 719.592 526.259C719.592 526.259 710.438 540.056 695.81 543.696C681.183 547.335 666.086 550.779 651.497 563.503C639.684 573.807 630.994 593.741 630.994 593.741C630.994 593.741 668.919 583.829 688.393 567.82Z" stroke="#A88771" stroke-width="18px" stroke-linecap="round" stroke-linejoin="round" class="crCpaCEk_68" fill="none"></path><path d="M675.799 564.169C697.023 547.551 702.374 534.873 702.374 534.873C702.374 534.873 694.397 544.464 683.71 548.36C673.022 552.256 662.027 556.082 650.351 565.615C640.897 573.334 632.56 586.684 632.56 586.684C632.56 586.684 660.322 576.287 675.799 564.169Z" stroke="#A88771" stroke-width="18px" stroke-linecap="round" stroke-linejoin="round" class="crCpaCEk_69" fill="none"></path><path d="M698.996 384.722C747.732 433.165 743.983 486.694 743.983 486.694C743.983 486.694 731.987 452.203 698.996 449.579C666.004 446.955 631.72 445.138 605.646 416.588C584.532 393.47 578.278 341.233 578.278 341.233C578.278 341.233 663.456 349.396 698.996 384.722Z" stroke="#A88771" stroke-width="18px" stroke-linecap="round" stroke-linejoin="round" class="crCpaCEk_70" fill="none"></path><path d="M695.243 393.797C740.489 433.637 742.422 476.13 742.422 476.13C742.422 476.13 729.151 448.368 701.376 445.404C673.6 442.44 644.822 440.084 620.366 416.674C600.564 397.718 590.406 355.988 590.406 355.988C590.406 355.988 662.25 364.745 695.243 393.797Z" stroke="#A88771" stroke-width="18px" stroke-linecap="round" stroke-linejoin="round" class="crCpaCEk_71" fill="none"></path><path d="M702.496 398.865C742.68 435.168 742.422 476.13 742.422 476.13C742.422 476.13 731.414 449.949 705.706 448.43C679.998 446.91 653.327 446.027 631.698 424.593C614.185 407.237 606.75 367.41 606.75 367.41C606.75 367.41 673.194 372.393 702.496 398.865Z" stroke="#A88771" stroke-width="18px" stroke-linecap="round" stroke-linejoin="round" class="crCpaCEk_72" fill="none"></path><path d="M696.369 407.434C733.114 438.49 737.471 468.448 737.471 468.448C737.471 468.448 725.595 448.055 704.507 444.076C683.419 440.097 661.619 436.477 641.63 418.375C625.445 403.716 614.955 373.732 614.955 373.732C614.955 373.732 669.575 384.788 696.369 407.434Z" stroke="#A88771" stroke-width="18px" stroke-linecap="round" stroke-linejoin="round" class="crCpaCEk_73" fill="none"></path><path d="M688.536 413.345C715.242 435.299 719.735 454.907 719.735 454.907C719.735 454.907 710.581 441.109 695.953 437.47C681.325 433.83 666.228 430.387 651.64 417.663C639.827 407.359 631.137 387.424 631.137 387.424C631.137 387.424 669.062 397.337 688.536 413.345Z" stroke="#A88771" stroke-width="18px" stroke-linecap="round" stroke-linejoin="round" class="crCpaCEk_74" fill="none"></path><path d="M675.942 416.997C697.166 433.615 702.517 446.292 702.517 446.292C702.517 446.292 694.54 436.701 683.853 432.805C673.165 428.91 662.17 425.083 650.494 415.551C641.039 407.832 632.703 394.482 632.703 394.482C632.703 394.482 660.465 404.879 675.942 416.997Z" stroke="#A88771" stroke-width="18px" stroke-linecap="round" stroke-linejoin="round" class="crCpaCEk_75" fill="none"></path><path d="M915.377 485.665C915.377 485.665 873.462 514.298 846.381 544.643C819.299 574.988 798.381 660.773 729.381 696.143C660.381 731.513 556.881 726.643 556.881 726.643" stroke="#A88771" stroke-width="30px" stroke-linecap="round" stroke-linejoin="round" class="crCpaCEk_76" fill="none"></path><path d="M565.513 715.079C565.903 694.917 550.174 678.01 530.013 677.579C510.394 677.16 494.529 692.014 493.014 711.579C491.462 731.619 505.99 749.322 526.013 751.079C546.804 752.903 565.109 735.946 565.513 715.079Z" stroke="#A88771" stroke-width="30px" stroke-linecap="round" stroke-linejoin="round" class="crCpaCEk_77" fill="none"></path><path d="M924.996 489.588C924.996 489.588 883.082 460.955 856.001 430.61C828.919 400.265 808.001 314.48 739.001 279.11C670.001 243.74 566.501 248.61 566.501 248.61" stroke="#A88771" stroke-width="30px" stroke-linecap="round" stroke-linejoin="round" class="crCpaCEk_78" fill="none"></path><path d="M565.513 257.079C565.903 236.917 550.174 220.01 530.013 219.579C510.394 219.16 494.529 234.014 493.014 253.579C491.462 273.619 505.99 291.322 526.013 293.079C546.804 294.903 565.109 277.946 565.513 257.079Z" stroke="#A88771" stroke-width="30px" stroke-linecap="round" stroke-linejoin="round" class="crCpaCEk_79" fill="none"></path><path d="M557.688 492.713C557.688 492.713 467.881 546.072 415.475 588.452C364.691 629.52 332.201 728.625 332.201 728.625" stroke="#A88771" stroke-width="30px" stroke-linecap="round" stroke-linejoin="round" class="crCpaCEk_80" fill="none"></path><path d="M331.518 852.856C315.744 852.518 312.767 836.595 299.018 828.856C285.051 820.995 268.356 827.604 261.018 813.356C254.212 800.143 266.735 790.698 267.518 775.856C268.447 758.238 253.747 745.547 263.518 730.856C272.554 717.268 288.723 724.573 302.518 715.856C313.745 708.762 314.958 695.767 328.018 693.356C344.812 690.255 350.241 708.221 365.518 715.856C379.142 722.664 393.064 718.187 401.518 730.856C411.332 745.564 396.131 758.178 396.518 775.856C396.841 790.627 408.632 800.408 401.518 813.356C394.147 826.771 378.895 821.417 365.518 828.856C351.313 836.754 347.767 853.204 331.518 852.856Z" stroke="#B9C6B4" stroke-width="25px" stroke-linecap="round" stroke-linejoin="round" class="crCpaCEk_81" fill="none"></path><path d="M333.216 829.996C321.858 829.755 319.714 818.4 309.814 812.881C299.758 807.275 287.737 811.989 282.453 801.828C277.552 792.405 286.569 785.67 287.133 775.086C287.802 762.522 277.218 753.472 284.253 742.996C290.759 733.306 302.401 738.515 312.334 732.299C320.419 727.24 321.292 717.973 330.696 716.254C342.788 714.043 346.697 726.855 357.697 732.299C367.507 737.154 377.531 733.961 383.619 742.996C390.686 753.484 379.74 762.48 380.019 775.086C380.251 785.619 388.742 792.594 383.619 801.828C378.311 811.394 367.33 807.577 357.697 812.881C347.47 818.514 344.916 830.244 333.216 829.996Z" stroke="#F74700" stroke-width="27px" stroke-linecap="round" stroke-linejoin="round" class="crCpaCEk_82" fill="none"></path><path d="M332.291 813.997C323.962 813.822 322.39 805.554 315.13 801.536C307.756 797.455 298.94 800.886 295.065 793.489C291.471 786.628 298.084 781.725 298.497 774.019C298.988 764.871 291.226 758.282 296.385 750.655C301.157 743.6 309.694 747.392 316.978 742.867C322.907 739.184 323.547 732.437 330.443 731.185C339.311 729.575 342.178 738.903 350.244 742.867C357.438 746.402 364.79 744.077 369.254 750.655C374.436 758.291 366.409 764.841 366.613 774.019C366.784 781.688 373.01 786.766 369.254 793.489C365.361 800.454 357.308 797.674 350.244 801.536C342.744 805.637 340.871 814.178 332.291 813.997Z" stroke="#F74700" stroke-width="27px" stroke-linecap="round" stroke-linejoin="round" class="crCpaCEk_83" fill="none"></path><path d="M331.588 789.451C321.91 789.503 313.952 780.875 314.667 771.683C315.347 762.942 322.384 756.424 331.588 756.474C340.752 756.524 347.649 762.98 348.326 771.683C349.039 780.846 341.235 789.398 331.588 789.451Z" stroke="#B9C6B4" stroke-width="26px" stroke-linecap="round" stroke-linejoin="round" class="crCpaCEk_84" fill="none"></path><path d="M326.719 772.393C326.507 775.125 328.791 777.513 331.531 777.498C334.256 777.483 336.502 775.111 336.29 772.393C336.094 769.878 334.054 768.038 331.531 768.024C328.993 768.01 326.916 769.863 326.719 772.393Z" stroke="#F74700" stroke-width="10px" stroke-linecap="round" stroke-linejoin="round" class="crCpaCEk_85" fill="none"></path><path d="M571.798 491.352C571.798 491.352 484.818 433.498 434.634 388.509C386.003 344.912 358.593 244.283 358.593 244.283" stroke="#A88771" stroke-width="30px" stroke-linecap="round" stroke-linejoin="round" class="crCpaCEk_86" fill="none"></path><path d="M331.518 271.856C315.744 271.518 312.767 255.595 299.018 247.856C285.051 239.995 268.356 246.604 261.018 232.356C254.212 219.143 266.735 209.698 267.518 194.856C268.447 177.238 253.747 164.547 263.518 149.856C272.554 136.268 288.723 143.573 302.518 134.856C313.745 127.762 314.958 114.767 328.018 112.356C344.812 109.255 350.241 127.221 365.518 134.856C379.142 141.664 393.064 137.187 401.518 149.856C411.332 164.564 396.131 177.178 396.518 194.856C396.841 209.627 408.632 219.408 401.518 232.356C394.147 245.771 378.895 240.417 365.518 247.856C351.313 255.754 347.767 272.204 331.518 271.856Z" stroke="#B9C6B4" stroke-width="25px" stroke-linecap="round" stroke-linejoin="round" class="crCpaCEk_87" fill="none"></path><path d="M333.216 248.996C321.858 248.755 319.714 237.4 309.814 231.881C299.758 226.275 287.737 230.989 282.453 220.828C277.552 211.405 286.569 204.67 287.133 194.086C287.802 181.522 277.218 172.472 284.253 161.996C290.759 152.306 302.401 157.515 312.334 151.299C320.419 146.24 321.292 136.973 330.696 135.254C342.788 133.043 346.697 145.855 357.697 151.299C367.507 156.154 377.531 152.961 383.619 161.996C390.686 172.484 379.74 181.48 380.019 194.086C380.251 204.619 388.742 211.594 383.619 220.828C378.311 230.394 367.33 226.577 357.697 231.881C347.47 237.514 344.916 249.244 333.216 248.996Z" stroke="#F74700" stroke-width="27px" stroke-linecap="round" stroke-linejoin="round" class="crCpaCEk_88" fill="none"></path><path d="M332.291 232.997C323.962 232.822 322.39 224.554 315.13 220.536C307.756 216.455 298.94 219.886 295.065 212.489C291.471 205.628 298.084 200.725 298.497 193.019C298.988 183.871 291.226 177.282 296.385 169.655C301.157 162.6 309.694 166.392 316.978 161.867C322.907 158.184 323.547 151.437 330.443 150.185C339.311 148.575 342.178 157.903 350.244 161.867C357.438 165.402 364.79 163.077 369.254 169.655C374.436 177.291 366.409 183.841 366.613 193.019C366.784 200.688 373.01 205.766 369.254 212.489C365.361 219.454 357.308 216.674 350.244 220.536C342.744 224.637 340.871 233.178 332.291 232.997Z" stroke="#F74700" stroke-width="27px" stroke-linecap="round" stroke-linejoin="round" class="crCpaCEk_89" fill="none"></path><path d="M331.588 208.451C321.91 208.503 313.952 199.875 314.667 190.683C315.347 181.942 322.384 175.424 331.588 175.474C340.752 175.524 347.649 181.98 348.326 190.683C349.039 199.846 341.235 208.398 331.588 208.451Z" stroke="#B9C6B4" stroke-width="26px" stroke-linecap="round" stroke-linejoin="round" class="crCpaCEk_90" fill="none"></path><path d="M326.719 191.393C326.507 194.125 328.791 196.513 331.531 196.498C334.256 196.483 336.502 194.111 336.29 191.393C336.094 188.878 334.054 187.038 331.531 187.024C328.993 187.01 326.916 188.863 326.719 191.393Z" stroke="#F74700" stroke-width="10px" stroke-linecap="round" stroke-linejoin="round" class="crCpaCEk_91" fill="none"></path><path d="M2407.61 296.67C2407.69 294.89 2407.05 293.07 2406.74 291.28L2404.38 291.12C2402.58 319.23 2391.38 343.54 2375.64 366.76C2375.64 348.59 2375.64 331.2 2375.77 313.82C2375.81 311.29 2376.13 308.771 2376.72 306.31C2380.38 290.4 2384 274.49 2387.9 258.64C2392.9 238.42 2398.37 218.33 2403.07 198.05C2405.86 186.761 2405.49 174.925 2402.01 163.83C2399.7 156.7 2396.9 149.38 2388.34 148.36C2379.78 147.34 2375.34 153.68 2371.15 159.92C2369.4 162.54 2367.44 165 2365.57 167.54L2363.16 166.77C2363.32 160.12 2363.16 153.45 2363.72 146.84C2364.94 133.11 2367.35 119.45 2367.88 105.7C2368.8 81.9501 2368.35 58.2501 2349.52 39.9101C2349.52 39.9101 2335.88 29.7101 2328.32 39.5101C2325.84 42.7401 2322.05 45.6001 2320.77 49.3201C2318.32 56.4301 2317.2 64.0101 2315.55 71.3901C2315.17 73.0901 2314.87 74.8101 2314.55 76.5101H2312.86C2311.58 69.1101 2310.19 61.7201 2309.07 54.2801C2307.38 42.2268 2302.77 30.767 2295.66 20.8901C2290.82 14.2701 2284.47 7.9501 2277.42 3.8901C2262.93 -4.4299 2247.16 4.6201 2245.3 21.2101C2245.12 22.8001 2245.05 24.4001 2244.72 28.6601C2241.72 25.6601 2240.22 23.5701 2238.2 22.2301C2232.35 18.3501 2226.58 14.2301 2220.27 11.2301C2206.27 4.5801 2191.65 13.6101 2191.93 28.9401C2192.16 34.522 2193.77 39.9592 2196.63 44.7601C2200.75 51.7601 2206.35 57.8201 2211.31 64.2901C2212.53 65.8901 2213.7 67.5201 2215.26 69.6101C2209.8 70.1701 2205.26 70.0901 2200.94 71.1801C2188.94 74.2501 2184.56 86.4701 2192.22 96.1801C2195.36 100.146 2199.3 103.409 2203.78 105.76C2212.78 110.34 2222.17 114.14 2231.55 117.92C2243.55 122.74 2255.81 126.92 2267.72 131.99C2272.37 133.99 2277.53 136.26 2279.19 142.48C2273.13 145.13 2268.03 141.85 2262.67 140.93C2254.13 139.47 2245.55 137.67 2236.94 137.4C2229.4 137.16 2222.34 140.04 2219.18 147.87C2216.58 154.29 2219.82 162.19 2226.73 167.87C2227.59 168.604 2228.51 169.25 2229.5 169.8C2241.43 176.04 2253.17 182.68 2265.37 188.33C2277.37 193.87 2289.89 198.24 2302.06 203.42C2307.39 205.69 2312.54 208.56 2315.06 215.01C2311.95 215.255 2308.82 214.916 2305.84 214.01C2299.38 212.11 2293.12 209.2 2286.54 208.1C2275.78 206.28 2268.8 215.05 2273.23 224.88C2275.5 229.671 2278.94 233.817 2283.23 236.94C2291.43 242.861 2300.04 248.185 2309 252.87C2331.67 264.68 2349.37 281.31 2361.16 304.09C2362.06 305.577 2363.06 307.001 2364.16 308.35L2364.37 308.28C2364.24 300.11 2362.63 291.99 2361.04 284.11C2360.47 281.25 2359.89 278.39 2359.38 275.53C2359.35 275.292 2359.29 275.059 2359.19 274.84C2356.84 272.519 2354.62 270.069 2352.55 267.5C2349.23 263.5 2346.1 259.8 2341.95 256.93C2332.1 250.131 2321.82 243.981 2311.17 238.52L2310.67 238.29C2310.04 238.095 2309.46 237.767 2308.97 237.326C2308.49 236.886 2308.1 236.345 2307.84 235.74C2307.66 235.033 2307.63 234.295 2307.75 233.575C2307.87 232.854 2308.14 232.168 2308.55 231.56C2308.77 231.148 2309.14 230.837 2309.59 230.693C2310.03 230.55 2310.52 230.584 2310.94 230.79L2315.88 233.15C2328.23 239.05 2340.88 245.15 2351.26 255.25C2352.79 256.53 2354.38 257.91 2356.03 259.39C2352.64 246.33 2349.1 234.17 2345.23 222.39C2343.48 217.364 2340.63 212.795 2336.88 209.02C2327.53 199.14 2317.77 192.27 2307.04 188.02C2291.91 182.02 2276.79 175.93 2262.16 170.02C2261.57 169.78 2260.97 169.57 2260.37 169.36C2258.07 168.56 2255.5 167.67 2253.65 165.36C2253.47 165.258 2253.32 165.126 2253.19 164.97C2252.94 164.664 2252.79 164.283 2252.77 163.885C2252.76 163.488 2252.87 163.096 2253.1 162.77C2253.38 162.365 2253.81 162.081 2254.29 161.97L2253.08 161.36L2254.67 161.86C2256.97 161.19 2259.02 161.99 2260.67 162.65L2261.07 162.81C2264.07 163.98 2267.07 165.11 2270.07 166.24C2274.68 167.97 2279.45 169.77 2284.07 171.7C2287.39 173.08 2290.83 174.42 2294.15 175.7C2308.45 181.29 2323.15 187.04 2335.53 198.51L2331.53 190.45C2322.75 172.66 2313.67 154.26 2303.16 137.02C2299.16 130.479 2293.83 124.846 2287.53 120.48C2273.81 110.66 2257.39 103.67 2235.88 98.4801L2234.5 98.1501C2227.42 96.4501 2220.1 94.7001 2211.99 89.8501C2211.64 89.6426 2211.38 89.3259 2211.23 88.9499C2211.08 88.5738 2211.07 88.1597 2211.18 87.7726C2211.29 87.3856 2211.53 87.0476 2211.86 86.8118C2212.19 86.576 2212.59 86.4558 2212.99 86.4701C2217.36 86.6663 2221.67 87.554 2225.76 89.1001C2227.75 89.8111 2229.79 90.376 2231.86 90.7901C2240.3 92.3297 2248.63 94.4651 2256.77 97.1801C2267.88 100.76 2277.98 106.47 2287.77 112.07L2287.6 111.84L2287.27 111.38C2271.81 89.6782 2254.4 69.428 2235.27 50.8801C2234.19 49.8801 2233.02 48.8801 2231.78 47.8801C2228.41 45.1001 2224.94 42.2401 2223.12 37.7501C2222.97 37.5984 2222.84 37.4228 2222.74 37.2301C2222.61 36.9518 2222.55 36.6448 2222.56 36.3373C2222.58 36.0298 2222.68 35.7316 2222.84 35.4701L2222.96 35.2801C2223.14 34.9884 2223.41 34.7547 2223.72 34.6061C2224.03 34.4575 2224.38 34.3999 2224.72 34.4401C2225.06 34.4794 2225.38 34.6146 2225.65 34.8301C2227.37 35.389 2228.89 36.4096 2230.07 37.7801L2230.69 38.3801C2244.92 51.6101 2261.5 67.6201 2276.58 85.9701C2283.75 94.7001 2290.44 103.97 2297.79 114.68C2297.57 113.43 2297.35 112.2 2297.13 110.98C2295.67 102.72 2294.28 94.9201 2292.79 87.2701C2291.3 80.5109 2289.36 73.8619 2286.96 67.3701C2285.56 63.2901 2284.11 59.0701 2282.9 54.8301C2280.76 47.7447 2278.15 40.8121 2275.08 34.0801C2273.95 31.4401 2272.78 28.7301 2271.6 25.8401C2271.45 25.4739 2271.42 25.0688 2271.52 24.6863C2271.63 24.3038 2271.85 23.9646 2272.16 23.7201C2272.51 23.4509 2272.96 23.3226 2273.4 23.3601C2273.23 23.0701 2273.08 22.7801 2272.91 22.5001C2273.19 22.7901 2273.45 23.1001 2273.72 23.4001C2273.94 23.4536 2274.16 23.5485 2274.35 23.6801C2279.05 27.1001 2280.97 29.4801 2283.29 34.7701C2284.69 37.9901 2286.02 41.2234 2287.29 44.4701C2287.49 44.9901 2287.68 45.5101 2287.86 46.0301C2291.18 54.9299 2293.87 64.0525 2295.91 73.3301C2296.15 74.4701 2296.37 75.6201 2296.59 76.7701C2297.68 81.0501 2298.72 85.3601 2299.64 89.6801C2299.8 90.1301 2299.93 90.5801 2300.1 91.0301C2300.92 93.4049 2301.48 95.8632 2301.76 98.3601C2302.29 101.91 2302.76 105.27 2304.94 108.05C2305.21 108.398 2305.34 108.832 2305.31 109.27C2305.19 111.246 2305.21 113.228 2305.39 115.2C2307.09 121.93 2309.03 128.59 2311.39 135.11C2312.79 138.11 2314.32 141.03 2315.88 144.03C2316.88 146.03 2317.94 148.03 2318.93 150.03C2322.45 157.11 2326.37 164.16 2330.15 171.03C2331.4 173.283 2332.65 175.533 2333.88 177.78C2334.19 178.397 2334.42 179.053 2334.55 179.73C2334.62 180.068 2334.71 180.402 2334.82 180.73C2334.99 179.272 2334.95 177.797 2334.7 176.35C2334.49 174.967 2334.41 173.568 2334.46 172.17C2335.22 160.06 2337.58 148.09 2339.87 136.51L2340.74 132.1C2345.45 107.97 2345.63 86.5301 2341.27 66.5301C2341.27 66.3301 2341.17 66.1301 2341.11 65.9201C2340.78 64.8001 2340.17 62.7201 2342.02 60.9801C2342.26 60.7501 2342.55 60.5899 2342.87 60.5176C2343.19 60.4452 2343.53 60.4634 2343.84 60.5701C2347.27 61.7301 2347.84 64.7801 2348.27 66.8101C2351.49 83.3201 2354.14 99.5401 2351.06 116.38C2350.39 120.14 2349.7 123.907 2348.98 127.68C2346.63 140.35 2344.2 153.45 2342.23 166.39C2340.03 180.9 2341.4 193.54 2346.41 205.01C2350.08 213.128 2352.93 221.594 2354.92 230.28C2355.13 231.216 2355.5 232.109 2356.02 232.92C2356.42 233.56 2356.7 233.64 2356.9 233.63C2357.1 233.62 2357.01 233.24 2357.05 233.07C2358.8 226.074 2361.45 219.334 2364.93 213.02C2370.44 202.601 2375.14 191.776 2379 180.64C2379.12 180.29 2379.23 179.93 2379.34 179.57C2379.98 177.47 2380.77 174.87 2383.51 173.31C2383.92 173.079 2384.4 173.016 2384.86 173.134C2385.32 173.251 2385.71 173.54 2385.96 173.94C2387.96 177.17 2386.96 179.86 2386.12 182.02C2385.87 182.644 2385.66 183.282 2385.49 183.93C2382.86 193.906 2379.03 203.524 2374.07 212.57C2363.79 230.09 2360.7 247.57 2364.63 266.13C2364.92 267.5 2365.23 268.93 2365.56 270.43C2368.56 283.97 2372.48 302.13 2369.03 318.16C2370.17 333.952 2370.18 349.805 2369.08 365.6C2368.4 374.93 2366.77 384.2 2365.58 393.5C2364.58 400.7 2357.43 413.84 2357.43 413.84C2352.72 422.45 2347.15 430.58 2341.96 438.92C2340.67 440.99 2339.46 443.11 2338.26 445.14C2344.21 449.55 2344.5 449.76 2347.96 444.98C2358.57 430.349 2366.15 413.738 2370.23 396.13C2372.71 385.151 2376.89 374.625 2382.61 364.93C2386.2 358.87 2389.62 352.717 2392.86 346.47C2401 330.82 2406.8 314.47 2407.61 296.67Z" fill="#F74700" class="crCpaCEk_92"></path><path d="M1642.3 652.9C1642.22 654.68 1642.87 656.49 1643.18 658.29L1645.53 658.44C1647.33 630.33 1658.53 606.02 1674.27 582.8C1674.27 600.98 1674.27 618.36 1674.14 635.74C1674.1 638.273 1673.78 640.794 1673.2 643.26C1669.54 659.16 1665.91 675.07 1662.02 690.92C1657.02 711.14 1651.55 731.24 1646.84 751.52C1644.05 762.805 1644.42 774.639 1647.9 785.73C1650.21 792.87 1653.02 800.18 1661.57 801.21C1670.12 802.24 1674.57 795.89 1678.76 789.64C1680.51 787.03 1682.47 784.56 1684.34 782.03L1686.75 782.8C1686.59 789.44 1686.75 796.12 1686.2 802.72C1684.97 816.45 1682.57 830.12 1682.03 843.86C1681.11 867.62 1681.56 891.32 1700.39 909.65C1700.39 909.65 1714.03 919.85 1721.59 910.05C1724.07 906.82 1727.86 903.97 1729.14 900.25C1731.59 893.13 1732.71 885.56 1734.36 878.17C1734.74 876.47 1735.04 874.76 1735.36 873.05H1737.05C1738.33 880.46 1739.73 887.85 1740.85 895.28C1742.54 907.336 1747.14 918.799 1754.25 928.68C1759.1 935.3 1765.44 941.61 1772.49 945.68C1786.98 954 1802.75 944.95 1804.62 928.36C1804.8 926.78 1804.87 925.18 1805.19 920.92C1808.19 923.92 1809.69 926 1811.71 927.34C1817.56 931.22 1823.34 935.34 1829.64 938.34C1843.64 944.99 1858.26 935.96 1857.98 920.64C1857.75 915.056 1856.14 909.617 1853.29 904.81C1849.17 897.81 1843.57 891.75 1838.61 885.28C1837.38 883.69 1836.21 882.06 1834.61 879.96C1840.08 879.4 1844.61 879.48 1848.93 878.39C1860.93 875.32 1865.31 863.1 1857.65 853.39C1854.52 849.417 1850.58 846.152 1846.1 843.81C1837.1 839.23 1827.7 835.42 1818.32 831.65C1806.32 826.82 1794.06 822.65 1782.16 817.57C1777.5 815.57 1772.34 813.3 1770.68 807.09C1776.75 804.44 1781.84 807.72 1787.2 808.63C1795.74 810.09 1804.32 811.89 1812.93 812.17C1820.48 812.4 1827.53 809.53 1830.69 801.7C1833.29 795.28 1830.05 787.37 1823.14 781.7C1822.28 780.963 1821.36 780.313 1820.37 779.76C1808.45 773.53 1796.71 766.88 1784.5 761.24C1772.5 755.69 1759.98 751.32 1747.82 746.14C1742.48 743.87 1737.33 741.01 1734.82 734.55C1737.93 734.307 1741.05 734.646 1744.03 735.55C1750.49 737.45 1756.76 740.35 1763.33 741.46C1774.09 743.27 1781.08 734.46 1776.64 724.68C1774.37 719.887 1770.93 715.74 1766.64 712.62C1758.42 706.692 1749.78 701.368 1740.79 696.69C1718.12 684.88 1700.42 668.25 1688.63 645.47C1687.73 643.98 1686.73 642.556 1685.63 641.21L1685.43 641.29C1685.55 649.45 1687.16 657.58 1688.75 665.45C1689.33 668.31 1689.9 671.17 1690.41 674.04C1690.43 674.277 1690.5 674.508 1690.61 674.72C1692.95 677.045 1695.17 679.498 1697.24 682.07C1700.56 686.02 1703.69 689.76 1707.84 692.63C1717.72 699.424 1728.03 705.561 1738.72 711L1739.21 711.23C1739.84 711.429 1740.42 711.76 1740.9 712.202C1741.39 712.644 1741.78 713.185 1742.04 713.79C1742.22 714.496 1742.26 715.232 1742.13 715.951C1742.01 716.67 1741.74 717.355 1741.33 717.96C1741.11 718.372 1740.74 718.684 1740.29 718.829C1739.85 718.974 1739.36 718.942 1738.94 718.74C1737.3 717.94 1735.65 717.16 1734 716.37C1721.65 710.48 1709 704.42 1698.62 694.28C1697.09 693 1695.51 691.62 1693.85 690.13C1697.24 703.19 1700.78 715.36 1704.65 727.13C1706.4 732.159 1709.25 736.731 1713 740.51C1722.35 750.39 1732.11 757.26 1742.84 761.51C1757.97 767.51 1773.1 773.6 1787.72 779.51C1788.31 779.74 1788.91 779.95 1789.52 780.16C1791.81 780.96 1794.38 781.86 1796.23 784.16C1796.4 784.262 1796.56 784.394 1796.69 784.55C1796.94 784.856 1797.09 785.236 1797.11 785.633C1797.13 786.03 1797.01 786.422 1796.79 786.75C1796.5 787.154 1796.08 787.442 1795.6 787.56H1795.54L1796.75 788.17L1795.16 787.67C1792.86 788.34 1790.81 787.55 1789.16 786.88L1788.76 786.72C1785.76 785.55 1782.76 784.42 1779.76 783.3C1775.15 781.56 1770.38 779.77 1765.76 777.84C1762.44 776.45 1759.01 775.11 1755.69 773.84C1741.38 768.26 1726.69 762.5 1714.3 751.03C1715.64 753.72 1716.96 756.41 1718.3 759.1C1727.08 776.89 1736.16 795.28 1746.67 812.52C1750.67 819.062 1756 824.699 1762.3 829.07C1776.02 838.89 1792.44 845.88 1813.96 851.07L1815.33 851.4C1822.41 853.09 1829.74 854.85 1837.84 859.69C1838.19 859.897 1838.45 860.214 1838.6 860.59C1838.75 860.966 1838.76 861.38 1838.65 861.767C1838.53 862.155 1838.29 862.493 1837.97 862.728C1837.64 862.964 1837.24 863.084 1836.84 863.07C1832.47 862.878 1828.15 861.993 1824.06 860.45C1822.07 859.731 1820.03 859.163 1817.96 858.75C1809.52 857.214 1801.19 855.078 1793.05 852.36C1781.95 848.79 1771.84 843.08 1762.05 837.47C1762.1 837.551 1762.16 837.628 1762.22 837.7L1762.56 838.17C1778.02 859.867 1795.43 880.114 1814.56 898.66C1815.65 899.66 1816.82 900.66 1818.06 901.66C1821.42 904.44 1824.89 907.31 1826.71 911.8C1826.86 911.948 1826.99 912.12 1827.09 912.31C1827.22 912.59 1827.28 912.899 1827.26 913.208C1827.25 913.517 1827.15 913.817 1826.99 914.08L1826.87 914.27C1826.69 914.56 1826.42 914.793 1826.12 914.941C1825.81 915.09 1825.46 915.148 1825.12 915.11C1824.78 915.06 1824.45 914.922 1824.18 914.71C1822.46 914.147 1820.93 913.107 1819.77 911.71L1819.14 911.12C1805 898 1788.38 882 1773.31 863.63C1766.13 854.89 1759.44 845.63 1752.09 834.92C1752.31 836.17 1752.53 837.4 1752.75 838.62C1754.22 846.87 1755.6 854.62 1757.09 862.33C1758.57 869.086 1760.52 875.732 1762.92 882.22C1764.32 886.3 1765.77 890.52 1766.98 894.77C1769.12 901.854 1771.73 908.787 1774.8 915.52C1775.94 918.15 1777.1 920.86 1778.28 923.75C1778.43 924.116 1778.46 924.522 1778.36 924.904C1778.26 925.287 1778.03 925.627 1777.72 925.87C1777.37 926.146 1776.93 926.279 1776.48 926.24C1776.65 926.52 1776.8 926.81 1776.97 927.1C1776.69 926.8 1776.44 926.49 1776.16 926.19C1775.93 926.141 1775.72 926.045 1775.53 925.91C1770.83 922.5 1768.92 920.11 1766.6 914.82C1765.19 911.607 1763.86 908.373 1762.6 905.12C1762.4 904.61 1762.22 904.12 1762.03 903.57C1758.72 894.667 1756.05 885.541 1754.03 876.26C1753.78 875.12 1753.56 873.97 1753.34 872.83C1752.25 868.54 1751.22 864.24 1750.34 859.92C1750.19 859.47 1750.05 859.01 1749.88 858.56C1749.06 856.189 1748.5 853.734 1748.22 851.24C1747.69 847.68 1747.22 844.32 1745.05 841.55C1744.78 841.2 1744.64 840.763 1744.67 840.32C1744.79 838.344 1744.77 836.362 1744.6 834.39C1742.89 827.66 1740.95 821.01 1738.6 814.49C1737.2 811.49 1735.67 808.56 1734.11 805.56C1733.11 803.56 1732.05 801.56 1731.05 799.56C1727.53 792.48 1723.62 785.42 1719.83 778.56C1718.58 776.32 1717.34 774.073 1716.1 771.82C1715.79 771.186 1715.56 770.514 1715.43 769.82C1715.36 769.481 1715.27 769.147 1715.16 768.82C1714.99 770.282 1715.03 771.761 1715.29 773.21C1715.5 774.59 1715.58 775.986 1715.53 777.38C1714.76 789.49 1712.4 801.47 1710.11 813.04L1709.24 817.46C1704.53 841.58 1704.36 863.03 1708.71 883.03C1708.75 883.237 1708.81 883.44 1708.88 883.64C1709.2 884.75 1709.81 886.84 1707.97 888.58C1707.73 888.807 1707.43 888.965 1707.11 889.035C1706.79 889.106 1706.45 889.087 1706.14 888.98C1702.71 887.83 1702.14 884.77 1701.72 882.75C1698.49 866.23 1695.84 850.01 1698.92 833.18C1699.59 829.413 1700.28 825.647 1701 821.88C1703.35 809.21 1705.78 796.1 1707.75 783.16C1709.95 768.65 1708.59 756.02 1703.58 744.55C1699.89 736.474 1697.01 728.049 1695 719.4C1694.79 718.467 1694.42 717.578 1693.91 716.77C1693.51 716.13 1693.22 716.05 1693.02 716.05C1693.02 716.2 1692.91 716.44 1692.87 716.61C1691.12 723.61 1688.48 730.353 1684.99 736.67C1679.47 747.045 1674.74 757.826 1670.86 768.92C1670.74 769.27 1670.63 769.63 1670.52 770C1669.88 772.09 1669.09 774.7 1666.35 776.25C1665.94 776.486 1665.45 776.552 1665 776.434C1664.54 776.316 1664.14 776.024 1663.9 775.62C1661.9 772.4 1662.9 769.71 1663.74 767.54C1663.99 766.917 1664.2 766.279 1664.37 765.63C1667.01 755.656 1670.85 746.041 1675.82 737C1686.09 719.47 1689.18 702 1685.26 683.43C1684.97 682.06 1684.65 680.63 1684.33 679.14C1681.33 665.59 1677.4 647.43 1680.85 631.4C1679.73 615.61 1679.73 599.76 1680.85 583.97C1681.52 574.63 1683.15 565.37 1684.35 556.07C1685.35 548.86 1692.49 535.72 1692.49 535.72C1697.2 527.12 1702.77 518.98 1707.97 510.64C1709.25 508.57 1710.46 506.45 1711.66 504.42C1705.71 500.01 1705.42 499.8 1701.97 504.58C1691.35 519.21 1683.78 535.821 1679.7 553.43C1677.21 564.412 1673.03 574.941 1667.31 584.64C1663.73 590.69 1660.31 596.84 1657.07 603.09C1648.94 618.74 1643.11 635.1 1642.3 652.9Z" fill="#F74700" class="crCpaCEk_93"></path><path d="M2765.48 712.33C2767.02 713.9 2769.2 714.84 2771.09 716.08L2773.21 714.08C2749.34 688.81 2736.84 658.22 2729.08 624.51C2745.47 639.83 2761.17 654.44 2776.78 669.16C2779.04 671.326 2781.05 673.734 2782.78 676.34C2794.06 693.02 2805.38 709.68 2816.41 726.52C2830.49 748.02 2844.01 769.89 2858.36 791.2C2866.36 803.13 2876.89 812.82 2890.15 819.03C2898.53 822.95 2907.5 826.57 2915.62 819.7C2923.74 812.83 2921.77 803.47 2919.62 794.45C2918.73 790.67 2918.15 786.83 2917.43 783.01L2920.16 781.48C2926.02 787.21 2959.37 825.07 2971.33 837.11C2992 857.92 3013.78 877.46 3046.18 875.87C3046.18 875.87 3066.86 872.14 3064.37 857.07C3063.54 852.07 3064.15 846.29 3061.87 842.01C3057.5 833.81 3051.61 826.42 3046.33 818.72C3045.11 816.95 3043.82 815.24 3042.56 813.5L3044 812C3051.76 817.08 3059.6 822 3067.26 827.28C3079.56 835.9 3093.78 841.392 3108.69 843.28C3118.75 844.47 3129.78 844.06 3139.37 841.1C3159.07 835.01 3164.17 813.16 3150.76 797.52C3149.48 796.02 3148.09 794.62 3144.52 790.74C3149.73 790.56 3152.9 790.95 3155.81 790.25C3164.23 788.25 3172.81 786.53 3180.81 783.35C3198.58 776.35 3202.73 755.51 3188.66 742.87C3183.42 738.382 3177.16 735.265 3170.42 733.8C3160.66 731.66 3150.42 731.59 3140.42 730.62C3137.95 730.38 3135.49 730.07 3132.29 729.72C3136.38 724.31 3140.29 720.25 3142.91 715.47C3150.26 702.03 3142.91 687.82 3127.66 686.55C3121.44 686.045 3115.18 686.852 3109.29 688.92C3097.59 693.19 3086.29 698.48 3074.95 703.77C3060.49 710.55 3046.38 718.08 3031.81 724.59C3026.12 727.13 3019.71 729.86 3012.7 726.13C3015.41 718.43 3022.65 716.58 3027.99 712.52C3036.49 706.04 3045.34 699.8 3052.82 692.25C3059.39 685.64 3062.72 676.85 3058.32 667.41C3054.7 659.67 3044.84 655.94 3033.92 657.41C3032.53 657.557 3031.17 657.849 3029.84 658.28C3014.18 663.8 2998.3 668.81 2982.94 675.08C2967.85 681.24 2953.36 688.88 2938.45 695.51C2931.91 698.41 2924.99 700.65 2917.08 697.46C2919.46 694.44 2922.38 691.893 2925.7 689.95C2932.86 685.71 2940.7 682.5 2947.28 677.49C2957.96 669.31 2955.93 655.63 2943.28 651.36C2937.04 649.378 2930.41 648.99 2923.99 650.23C2911.73 652.67 2899.65 655.992 2887.87 660.17C2858.14 670.7 2828.23 672.7 2797.74 664.17C2795.64 663.735 2793.5 663.45 2791.36 663.32L2791.25 663.57C2798.73 670.32 2807.42 675.7 2815.87 680.89C2818.93 682.77 2822 684.66 2825.02 686.61C2825.25 686.788 2825.52 686.924 2825.8 687.01C2829.87 686.848 2833.95 686.912 2838.01 687.2C2844.38 687.53 2850.39 687.85 2856.47 686.52C2870.9 683.345 2885.1 679.233 2898.99 674.21L2899.62 673.95C2900.32 673.549 2901.11 673.305 2901.91 673.235C2902.72 673.164 2903.54 673.268 2904.3 673.54C2905.7 674.17 2906.74 675.54 2907.48 677.7C2907.66 678.248 2907.63 678.846 2907.38 679.369C2907.14 679.892 2906.7 680.301 2906.16 680.51L2900 683C2884.28 689.19 2868.16 695.53 2850.28 696.36C2847.84 696.66 2845.26 696.933 2842.53 697.18C2857.17 705.11 2871.13 712.18 2885.04 718.57C2891.05 721.226 2897.57 722.495 2904.14 722.28C2920.93 722.15 2935.34 719.11 2948.2 713.01C2966.36 704.39 2984.57 695.86 3002.2 687.6C3002.91 687.27 3003.61 686.9 3004.3 686.54C3006.95 685.14 3009.93 683.54 3013.57 683.84C3013.81 683.774 3014.06 683.747 3014.31 683.76C3014.8 683.786 3015.27 683.972 3015.64 684.29C3016.02 684.608 3016.27 685.04 3016.38 685.52C3016.51 686.118 3016.41 686.743 3016.1 687.27C3016.1 687.27 3016.1 687.27 3016.1 687.34L3017.67 686.75C3017.08 687.11 3016.47 687.43 3015.88 687.75C3014.55 690.38 3012.11 691.57 3010.09 692.52L3009.62 692.75C3006.05 694.46 3002.51 696.22 2998.96 697.98C2993.52 700.68 2987.89 703.48 2982.24 706.04C2978.24 707.88 2974.1 709.85 2970.14 711.75C2953.06 719.97 2935.47 728.43 2914.72 729.93L2925.36 733.12C2948.81 740.12 2973.06 747.43 2997.47 752.44C3006.74 754.331 3016.3 754.266 3025.55 752.25C3045.96 748.12 3066.09 739.17 3088.87 724.11L3090.32 723.11C3097.81 718.11 3105.55 713 3116.75 709.76C3117.23 709.62 3117.74 709.641 3118.2 709.822C3118.66 710.002 3119.05 710.331 3119.3 710.757C3119.56 711.183 3119.67 711.681 3119.61 712.174C3119.55 712.667 3119.33 713.126 3118.98 713.48C3114.57 718.03 3109.98 720.57 3105.87 722.81C3103.55 724 3101.32 725.364 3099.2 726.89C3090.69 733.225 3081.74 738.943 3072.42 744C3059.85 751 3046.2 755.35 3032.92 759.45H3033.27L3033.98 759.53C3068.98 763.91 3101.17 765.19 3132.36 763.44C3134.22 763.34 3136.07 763.1 3138.04 762.84C3143.38 762.14 3148.89 761.42 3154.47 763.55C3154.74 763.531 3155 763.561 3155.26 763.64C3155.62 763.753 3155.95 763.956 3156.22 764.23C3156.48 764.505 3156.67 764.842 3156.77 765.21L3156.84 765.48C3156.92 765.787 3156.94 766.108 3156.88 766.421C3156.83 766.734 3156.71 767.033 3156.54 767.297C3156.36 767.562 3156.13 767.786 3155.86 767.956C3155.6 768.125 3155.29 768.236 3154.98 768.28C3152.98 769.65 3150.53 769.7 3148.6 769.79L3147.54 769.85C3123.61 771.57 3095.21 773.08 3065.97 771.25C3052.04 770.39 3038.05 768.64 3022.19 766.25L3026.09 768.76C3034.78 774.38 3042.99 779.69 3051.15 784.76C3058.37 789.26 3066.33 792.76 3074.02 796.23C3078.88 798.4 3083.91 800.64 3088.76 803.12C3097.51 807.59 3105.56 810.47 3114.08 813.51C3117.41 814.71 3120.84 815.93 3124.44 817.3C3124.9 817.471 3125.29 817.788 3125.55 818.202C3125.81 818.616 3125.92 819.103 3125.88 819.59C3125.83 820.136 3125.58 820.644 3125.17 821.01L3126.36 821.3C3125.86 821.3 3125.36 821.3 3124.86 821.3C3124.63 821.465 3124.36 821.581 3124.08 821.64C3117.08 823.01 3113.28 822.74 3106.55 820.37C3102.46 818.943 3098.43 817.42 3094.46 815.8C3093.82 815.54 3093.2 815.27 3092.57 815C3081.74 810.515 3071.24 805.269 3061.15 799.3C3059.91 798.56 3058.69 797.79 3057.47 797.03C3052.68 794.41 3047.93 791.72 3043.25 788.92C3042.71 788.68 3042.18 788.42 3041.63 788.2C3038.8 786.938 3036.12 785.372 3033.63 783.53C3029.97 781.02 3026.51 778.65 3022.2 778.25C3021.66 778.197 3021.15 777.949 3020.78 777.55C3019.1 775.78 3017.29 774.139 3015.37 772.64C3007.85 768.52 3000.22 764.64 2992.37 761.29C2988.52 760.06 2984.56 758.95 2980.54 757.84C2977.88 757.1 2975.22 756.36 2972.54 755.58C2963.18 752.8 2953.54 750.4 2944.17 748.07L2934.94 745.76C2934.12 745.534 2933.34 745.197 2932.61 744.76C2932.25 744.545 2931.88 744.351 2931.5 744.18C2932.68 745.561 2934.05 746.764 2935.57 747.75C2937 748.726 2938.34 749.83 2939.57 751.05C2949.86 761.92 2958.68 774.13 2967.22 785.94L2970.47 790.43C2988.29 814.98 3007.47 833.18 3029.22 846.07C3029.44 846.2 3029.68 846.32 3029.91 846.44C3031.2 847.08 3033.59 848.28 3033.61 851.44C3033.62 851.849 3033.51 852.252 3033.31 852.605C3033.1 852.958 3032.8 853.247 3032.44 853.44C3028.51 855.57 3025.25 853.54 3023.09 852.19C3005.46 841.19 2988.59 829.96 2975.98 813.02C2973.16 809.233 2970.34 805.437 2967.53 801.63C2958.06 788.85 2948.28 775.63 2938.25 762.98C2926.99 748.78 2914.44 739.38 2899.87 734.25C2889.44 730.746 2879.39 726.2 2869.87 720.68C2868.85 720.087 2867.73 719.671 2866.57 719.45C2865.66 719.28 2865.35 719.45 2865.19 719.65C2865.3 719.86 2865.43 720.064 2865.56 720.26C2870.41 727.728 2874.27 735.796 2877.04 744.26C2881.77 757.973 2887.53 771.308 2894.28 784.15L2894.96 785.36C2896.32 787.7 2897.96 790.61 2897.11 794.36C2896.97 794.928 2896.62 795.421 2896.13 795.734C2895.64 796.048 2895.04 796.157 2894.47 796.04C2889.91 795.1 2888.32 791.94 2887.04 789.39C2886.69 788.637 2886.29 787.909 2885.84 787.21C2879.99 778.44 2872.55 762.68 2869.6 752.8C2862.43 728.8 2849.2 711.26 2829.18 699.22C2827.7 698.33 2826.18 697.41 2824.52 696.45C2809.79 687.73 2790.07 676.03 2778.52 659.45C2763.31 647.188 2748.98 633.868 2735.65 619.59C2727.79 611.12 2720.8 601.86 2713.4 592.96C2707.73 585.96 2701.89 568.49 2701.89 568.49C2698.08 557 2680.89 543.95 2674.78 533.49C2673.26 530.89 2671.64 528.35 2670.12 525.87C2661.88 529.82 2661.48 530.02 2664.71 536.54C2674.71 556.69 2694.6 576.37 2707.12 594.95C2714.94 606.432 2720.93 619.059 2724.87 632.38C2727.32 640.71 2729.99 648.99 2732.92 657.16C2740.23 677.6 2750.09 696.63 2765.48 712.33Z" fill="#F74700" class="crCpaCEk_94"></path><path d="M2945.54 171.82C2941.03 157.47 2922.47 148.95 2910.15 165.5L2909.64 165.35C2902.14 179.68 2900.64 199 2908.16 214.08C2910.06 216.87 2911.65 220 2909.39 223.03C2901.91 230.19 2890.79 220.53 2882.02 220.47C2856.81 218.05 2867.45 248.47 2855.02 263.13L2855.17 263.28C2855.12 263.28 2831.81 280.56 2820.72 290.57C2828.16 253.46 2835.02 239.96 2813.6 204.74L2809.28 211.29C2827.4 229.67 2818 284.56 2810.96 296.38C2811.83 295.38 2804.96 303.93 2801.89 307.23C2799.71 316.9 2793.95 324.64 2788.29 332.45C2784.5 337.67 2786.56 339.85 2792.38 339.87C2792.48 339.848 2792.57 339.803 2792.64 339.739C2792.71 339.675 2792.77 339.593 2792.81 339.501C2792.84 339.409 2792.86 339.31 2792.84 339.212C2792.83 339.114 2792.8 339.021 2792.74 338.94C2795.12 336.492 2796.96 333.573 2798.14 330.37C2798.74 330.098 2799.24 329.66 2799.6 329.109C2799.95 328.557 2800.14 327.916 2800.14 327.26C2807.14 318.55 2814.21 309.87 2821.23 301.16H2821.3C2828.18 294.85 2835.48 289.06 2842.87 283.39L2842.66 283.09C2855.99 273.78 2866.22 259.93 2882.12 254.84C2883.23 254.732 2884.28 254.306 2885.15 253.614C2886.02 252.922 2886.67 251.993 2887.02 250.94C2900.23 248.25 2909.28 244.94 2918.41 240.31C2922.98 240.61 2927.1 238.55 2931.63 237.89C2932.91 237.627 2934.04 236.896 2934.8 235.84C2942.1 226.39 2943.98 212.37 2939.22 202.1C2934.61 194.72 2933.58 191.52 2934.72 191.18C2936.23 190.11 2938.08 192.12 2939.04 193.33C2949.73 202.19 2949.57 221.98 2941.96 235.39C2987.56 228.23 3009.43 205.56 3010.1 160.03C3011.85 156.03 3015.46 156.82 3015.4 162.92C3016.49 190.79 3004.68 215.82 2982.24 227.83C3001.72 227.94 3019.78 223.97 3038.73 216.89C3060.73 208.5 3062.62 194.57 3076.04 180.57L3076.15 178.28L3078.86 181.46L3078.08 181.86C3075.39 199.48 3059.42 212.72 3043.73 222.22C3062.44 222.05 3081.48 223.95 3099.89 225.67C3106.57 227.78 3129.01 224.46 3129.89 232.31C3096.77 232.38 3060.16 226.6 3032.34 228.98C3053.12 234.38 3068.95 249.5 3084.05 263.2C3088.26 266.78 3093.65 269.12 3096.05 274.72C3083.27 276 3073.94 262.11 3064.61 255.3C3033.38 225.48 3005.32 230.8 2966.72 237.67C3010.72 238.67 3019.63 287.28 3032.32 319.9C3033.22 321.23 3034.11 323.56 3031.32 324.9C3020.79 315.26 3018.88 298.57 3013.69 285.74C3003.57 252.56 2971.58 236.18 2940.81 241.74C2938.15 245.14 2934.96 241.21 2932.81 243.05C2931.71 244.05 2928.19 245.36 2931.33 246.34C2952.01 255.77 2955.45 277.04 2954.46 300.51C2954.45 300.846 2954.31 301.167 2954.09 301.415C2953.86 301.663 2953.55 301.822 2953.22 301.864C2952.88 301.906 2952.55 301.828 2952.26 301.644C2951.98 301.46 2951.78 301.182 2951.68 300.86C2948.46 290.97 2948.17 280.62 2944.51 270.72C2933.4 240.28 2908.38 249.13 2886.21 260.07C2894.13 262.32 2899.83 264.39 2901.75 272.94C2898.55 273.54 2896.43 271.51 2894.39 269.81C2883.87 262.81 2874.07 262.7 2864.99 272.15L2864.17 271.5L2862.96 272.21C2863.06 273.29 2865.6 273.58 2866.15 274.52C2874.28 274.36 2880.3 281.72 2886.69 285.87C2896.77 292.6 2908.69 290.5 2915.86 280.74C2917.27 278.83 2917.8 275.52 2920.73 275.74C2924.05 275.99 2924.36 279.54 2925.32 281.95C2930.32 299.95 2949.87 328 2969.04 309.15C2978.23 300.55 2971.67 287.62 2970.51 277.15C2975.27 252.06 2991.94 308.6 2995.42 312.82C3005 341.92 3047.54 355.6 3054.66 317.29C3061.06 301.83 3041.73 273.03 3053.08 265.06C3063.98 263.31 3079.58 293.81 3094.43 296.89C3108.25 302.16 3119.72 294.89 3120.6 280.2C3116.72 249.14 3125.73 256.53 3150.19 249.36C3162.8 246.43 3165.14 228.1 3154.75 220.95C3142.39 208.54 3110.47 213.95 3109.07 192.9C3109.07 178.47 3105.35 159 3090.14 157.9C3077.85 155.55 3069.34 159.98 3062.51 172.27C3061.16 173.62 3060.34 177 3058.51 176.45C3045.57 172.63 3049.43 156.75 3047.08 143.36C3044.8 129.53 3027.02 122.24 3014.01 127.13C3014.22 127.25 3014.44 127.37 3014.64 127.51C3014.44 127.37 3014.22 127.25 3014.01 127.13C3002.78 131.03 2994.55 141.13 2989.3 151.82C2983.86 170.69 2970.39 198.94 2951.3 179.6L2945.54 171.82ZM3062.81 172.61L3063.24 173.16L3062.81 172.61Z" fill="#B53A25" class="crCpaCEk_95"></path><path d="M1286.58 210.54C1285.04 208.97 1282.86 208.03 1280.97 206.8L1278.85 208.8C1302.72 234.07 1315.22 264.67 1322.97 298.37C1306.59 283.06 1290.89 268.44 1275.28 253.72C1273.02 251.556 1271.01 249.151 1269.28 246.55C1258 229.87 1246.68 213.21 1235.65 196.36C1221.57 174.86 1208.05 152.99 1193.65 131.68C1185.65 119.76 1175.12 110.06 1161.86 103.86C1153.48 99.9299 1144.51 96.3199 1136.39 103.18C1128.27 110.04 1130.24 119.41 1132.39 128.43C1133.28 132.21 1133.86 136.06 1134.57 139.87L1131.85 141.4C1125.99 135.67 1092.64 97.8199 1080.68 85.7699C1060.01 64.9599 1038.23 45.4299 1005.83 47.0099C1005.83 47.0099 985.15 50.7399 987.64 65.8099C988.47 70.8099 987.86 76.5899 990.14 80.8799C994.51 89.0699 1000.4 96.4599 1005.68 104.17C1006.89 105.93 1008.19 107.64 1009.45 109.38L1008.03 110.91C1000.27 105.83 992.42 100.91 984.77 95.6299C972.46 87.018 958.242 81.5271 943.34 79.6299C933.28 78.4399 922.25 78.8499 912.66 81.8099C892.96 87.8999 887.86 109.75 901.27 125.39C902.55 126.89 903.94 128.3 907.51 132.17C902.3 132.35 899.13 131.96 896.22 132.66C887.8 134.66 879.22 136.39 871.22 139.56C853.45 146.56 849.3 167.41 863.37 180.05C868.608 184.533 874.874 187.649 881.61 189.12C891.37 191.26 901.61 191.32 911.61 192.29C914.08 192.53 916.54 192.84 919.74 193.2C915.65 198.6 911.74 202.66 909.12 207.44C901.77 220.88 909.12 235.1 924.37 236.36C930.591 236.865 936.85 236.058 942.74 233.99C954.44 229.72 965.74 224.43 977.08 219.14C991.53 212.36 1005.65 204.83 1020.22 198.32C1025.91 195.78 1032.32 193.05 1039.33 196.78C1036.62 204.48 1029.33 206.33 1024.04 210.4C1015.54 216.88 1006.69 223.11 999.2 230.66C992.64 237.27 989.31 246.06 993.71 255.5C997.33 263.25 1007.19 266.98 1018.11 265.5C1019.49 265.349 1020.86 265.057 1022.18 264.63C1037.85 259.11 1053.73 254.1 1069.09 247.82C1084.18 241.66 1098.67 234.02 1113.58 227.4C1120.12 224.49 1127.04 222.25 1134.95 225.4C1132.57 228.42 1129.64 230.97 1126.33 232.92C1119.17 237.15 1111.33 240.36 1104.75 245.37C1094.07 253.56 1096.1 267.24 1108.75 271.5C1114.98 273.485 1121.62 273.877 1128.04 272.64C1140.3 270.196 1152.37 266.871 1164.16 262.69C1193.89 252.16 1223.8 250.17 1254.29 258.69C1256.39 259.124 1258.53 259.411 1260.67 259.55L1260.78 259.3C1253.3 252.55 1244.61 247.17 1236.16 241.98C1233.1 240.09 1230.03 238.2 1227.01 236.25C1226.77 236.077 1226.51 235.942 1226.23 235.85C1222.16 236.015 1218.08 235.955 1214.02 235.67C1207.65 235.33 1201.64 235.02 1195.56 236.35C1181.12 239.528 1166.9 243.65 1153 248.69C1152.79 248.76 1152.58 248.85 1152.37 248.94C1151.67 249.343 1150.88 249.589 1150.07 249.659C1149.27 249.73 1148.45 249.625 1147.69 249.35C1146.29 248.72 1145.25 247.35 1144.51 245.19C1144.33 244.642 1144.36 244.044 1144.61 243.521C1144.85 242.998 1145.29 242.589 1145.83 242.38C1147.93 241.57 1150.02 240.74 1152.11 239.92C1167.83 233.72 1183.95 227.39 1201.83 226.55C1204.27 226.25 1206.85 225.98 1209.58 225.74C1194.94 217.81 1180.98 210.74 1167.07 204.34C1161.06 201.689 1154.53 200.421 1147.97 200.63C1131.18 200.77 1116.77 203.8 1103.9 209.91C1085.75 218.52 1067.54 227.05 1049.9 235.31C1049.19 235.64 1048.49 236.01 1047.79 236.38C1045.15 237.78 1042.17 239.38 1038.53 239.07C1038.29 239.141 1038.04 239.168 1037.79 239.15C1037.3 239.126 1036.83 238.94 1036.46 238.622C1036.08 238.303 1035.82 237.87 1035.72 237.39C1035.59 236.793 1035.69 236.17 1035.99 235.64V235.58L1034.42 236.16C1035.01 235.81 1035.61 235.49 1036.21 235.16C1037.54 232.52 1039.98 231.34 1042 230.38L1042.47 230.16C1046.04 228.45 1049.58 226.69 1053.13 224.93C1058.57 222.22 1064.2 219.43 1069.85 216.86C1073.85 215.03 1077.99 213.05 1081.95 211.15C1099.03 202.93 1116.62 194.47 1137.37 192.97L1126.73 189.79C1103.28 182.79 1079.03 175.48 1054.62 170.46C1045.35 168.574 1035.79 168.639 1026.54 170.65C1006.12 174.79 986 183.73 963.22 198.8L961.77 199.8C954.28 204.8 946.54 209.91 935.34 213.16C934.863 213.3 934.354 213.279 933.892 213.098C933.429 212.918 933.04 212.589 932.785 212.163C932.529 211.737 932.423 211.239 932.482 210.746C932.541 210.253 932.761 209.794 933.11 209.44C937.52 204.88 942.11 202.35 946.22 200.11C948.54 198.916 950.77 197.552 952.89 196.03C961.377 189.694 970.307 183.973 979.61 178.91C992.18 171.91 1005.83 167.57 1019.11 163.47H1018.76L1018.05 163.38C983.05 159 950.86 157.72 919.67 159.47C917.81 159.57 915.96 159.82 913.99 160.07C908.65 160.77 903.14 161.5 897.56 159.37C897.293 159.381 897.025 159.347 896.77 159.27C896.406 159.157 896.076 158.954 895.812 158.68C895.548 158.405 895.358 158.068 895.26 157.7L895.19 157.43C895.109 157.123 895.094 156.802 895.146 156.489C895.198 156.176 895.316 155.877 895.491 155.613C895.667 155.348 895.897 155.124 896.165 154.955C896.434 154.785 896.735 154.675 897.05 154.63C899.05 153.26 901.5 153.22 903.43 153.12C903.79 153.12 904.14 153.12 904.49 153.06C928.42 151.34 956.82 149.84 986.06 151.66C999.99 152.53 1013.98 154.28 1029.84 156.66L1026 154C1017.31 148.38 1009.1 143.07 1000.94 138C993.72 133.49 985.76 129.95 978.07 126.52C973.21 124.36 968.18 122.12 963.33 119.64C954.58 115.16 946.53 112.28 938.01 109.24C934.68 108.05 931.25 106.82 927.65 105.46C927.193 105.287 926.805 104.97 926.545 104.557C926.285 104.143 926.167 103.656 926.21 103.17C926.258 102.621 926.511 102.11 926.92 101.74C926.52 101.65 926.13 101.54 925.73 101.46H927.23C927.466 101.299 927.731 101.184 928.01 101.12C935.01 99.7599 938.81 100.03 945.54 102.39C949.626 103.823 953.656 105.35 957.63 106.97C958.27 107.22 958.89 107.49 959.52 107.76C970.349 112.249 980.848 117.495 990.94 123.46C992.18 124.2 993.4 124.97 994.62 125.74C999.41 128.36 1004.16 131.04 1008.84 133.84C1009.38 134.08 1009.9 134.35 1010.46 134.57C1013.29 135.825 1015.97 137.388 1018.46 139.23C1022.12 141.74 1025.58 144.11 1029.88 144.51C1030.43 144.56 1030.93 144.809 1031.31 145.21C1032.99 146.981 1034.8 148.625 1036.72 150.13C1044.24 154.25 1051.87 158.13 1059.72 161.47C1063.57 162.7 1067.53 163.81 1071.55 164.93C1074.21 165.67 1076.87 166.41 1079.55 167.19C1088.91 169.96 1098.55 172.37 1107.92 174.69L1117.15 177C1117.97 177.227 1118.75 177.563 1119.48 178C1119.96 178.27 1120.31 178.46 1120.59 178.58C1119.42 177.193 1118.04 175.987 1116.52 175C1115.09 174.025 1113.75 172.924 1112.52 171.71C1102.23 160.83 1093.41 148.62 1084.87 136.82L1081.62 132.32C1063.8 107.77 1044.62 89.5699 1022.86 76.6799C1022.65 76.5499 1022.41 76.4399 1022.18 76.3199C1020.89 75.6699 1018.5 74.4699 1018.48 71.3199C1018.47 70.9112 1018.58 70.5081 1018.78 70.1552C1018.99 69.8023 1019.29 69.5132 1019.65 69.3199C1023.58 67.1899 1026.84 69.2299 1029 70.5699C1046.63 81.5699 1063.5 92.8099 1076.11 109.74C1078.93 113.533 1081.75 117.33 1084.56 121.13C1094.03 133.91 1103.81 147.13 1113.84 159.79C1125.1 173.99 1137.65 183.38 1152.22 188.51C1162.65 192.014 1172.7 196.561 1182.22 202.08C1183.24 202.675 1184.36 203.091 1185.52 203.31C1186.43 203.48 1186.74 203.31 1186.9 203.11C1186.81 202.94 1186.65 202.68 1186.53 202.5C1181.68 195.032 1177.82 186.964 1175.05 178.5C1170.32 164.783 1164.56 151.445 1157.81 138.6L1157.13 137.39C1155.77 135.06 1154.13 132.15 1154.98 128.39C1155.11 127.821 1155.46 127.326 1155.96 127.013C1156.45 126.699 1157.05 126.59 1157.62 126.71C1162.18 127.64 1163.77 130.81 1165.05 133.35C1165.4 134.1 1165.8 134.828 1166.24 135.53C1172.1 144.3 1179.53 160.06 1182.49 169.94C1189.66 193.94 1202.89 211.49 1222.91 223.52C1224.39 224.41 1225.91 225.33 1227.57 226.29C1242.3 235.01 1262.02 246.72 1273.57 263.29C1288.78 275.551 1303.1 288.874 1316.43 303.16C1324.3 311.62 1331.29 320.89 1338.68 329.79C1344.36 336.74 1350.2 354.25 1350.2 354.25C1354.01 365.75 1371.2 378.79 1377.31 389.25C1378.83 391.85 1380.45 394.38 1381.97 396.86C1390.21 392.91 1390.61 392.71 1387.38 386.19C1377.38 366.04 1357.49 346.36 1344.97 327.78C1337.15 316.298 1331.16 303.671 1327.22 290.35C1324.77 282.017 1322.1 273.757 1319.22 265.57C1311.83 245.27 1302 226.25 1286.58 210.54Z" fill="#F74700" class="crCpaCEk_96"></path><path d="M1105.18 778.43C1109.69 792.78 1128.24 801.3 1140.56 784.75L1141.07 784.9C1148.58 770.57 1150.07 751.25 1142.56 736.18C1140.65 733.38 1139.06 730.25 1141.32 727.23C1148.8 720.06 1159.92 729.72 1168.69 729.79C1193.9 732.2 1183.26 701.79 1195.69 687.12L1195.54 686.98C1195.54 686.98 1218.9 669.7 1230 659.68C1222.56 696.79 1215.7 710.29 1237.11 745.51L1241.43 738.97C1223.31 720.59 1232.71 665.69 1239.75 653.87C1238.89 654.87 1245.75 646.33 1248.82 643.03C1251 633.35 1256.76 625.61 1262.43 617.8C1266.22 612.58 1264.15 610.4 1258.34 610.38C1258.24 610.4 1258.15 610.444 1258.08 610.508C1258 610.572 1257.94 610.653 1257.9 610.745C1257.87 610.838 1257.85 610.937 1257.87 611.036C1257.88 611.134 1257.91 611.229 1257.97 611.31C1255.59 613.76 1253.75 616.683 1252.57 619.89C1251.97 620.159 1251.47 620.595 1251.11 621.145C1250.76 621.695 1250.57 622.336 1250.57 622.99C1243.57 631.7 1236.5 640.39 1229.48 649.09H1229.41C1222.53 655.39 1215.23 661.18 1207.84 666.85L1208.05 667.16C1194.72 676.46 1184.49 690.31 1168.59 695.4C1167.48 695.512 1166.44 695.939 1165.57 696.63C1164.7 697.322 1164.05 698.248 1163.69 699.3C1150.48 701.99 1141.43 705.3 1132.3 709.93C1127.73 709.63 1123.62 711.69 1119.08 712.35C1117.81 712.623 1116.68 713.356 1115.91 714.41C1108.61 723.86 1106.73 737.88 1111.5 748.14C1116.11 755.53 1117.13 758.73 1115.99 759.07C1114.48 760.13 1112.63 758.12 1111.67 756.91C1100.98 748.06 1101.15 728.26 1108.76 714.85C1063.15 722.01 1041.28 744.68 1040.61 790.21C1038.86 794.21 1035.26 793.43 1035.32 787.32C1034.22 759.46 1046.04 734.42 1068.47 722.42C1048.99 722.3 1030.93 726.27 1011.98 733.35C989.98 741.74 988.09 755.67 974.67 769.67L974.56 771.96L971.85 768.78L972.63 768.38C975.33 750.76 991.3 737.53 1006.99 728.02C988.27 728.2 969.23 726.29 950.83 724.57C944.15 722.46 921.7 725.79 920.83 717.93C953.94 717.87 990.55 723.64 1018.37 721.26C997.59 715.86 981.76 700.74 966.66 687.04C962.45 683.47 957.06 681.12 954.66 675.52C967.44 674.24 976.77 688.13 986.09 694.94C1017.32 724.77 1045.38 719.45 1083.98 712.57C1039.98 711.57 1031.07 662.96 1018.38 630.34C1017.48 629.01 1016.59 626.68 1019.38 625.34C1029.91 634.98 1031.81 651.67 1037 664.51C1047.12 697.68 1079.11 714.07 1109.88 708.51C1112.54 705.11 1115.74 709.03 1117.88 707.19C1118.97 706.19 1122.49 704.88 1119.35 703.91C1098.67 694.47 1095.23 673.2 1096.23 649.73C1096.24 649.394 1096.38 649.075 1096.61 648.829C1096.83 648.582 1097.14 648.425 1097.48 648.384C1097.81 648.343 1098.15 648.422 1098.43 648.606C1098.71 648.79 1098.91 649.068 1099.01 649.39C1102.22 659.27 1102.51 669.62 1106.17 679.52C1117.28 709.97 1142.3 701.11 1164.48 690.17C1156.56 687.92 1150.85 685.85 1148.93 677.31C1152.13 676.71 1154.25 678.73 1156.3 680.43C1166.81 687.43 1176.61 687.55 1185.69 678.09L1186.51 678.75L1187.72 678.03C1187.62 676.95 1185.08 676.66 1184.54 675.72C1176.4 675.89 1170.38 668.52 1163.99 664.37C1153.91 657.64 1141.99 659.74 1134.82 669.5C1133.41 671.42 1132.88 674.72 1129.95 674.5C1126.63 674.25 1126.32 670.7 1125.36 668.29C1120.36 650.29 1100.81 622.29 1081.64 641.09C1072.45 649.69 1079.01 662.63 1080.18 673.09C1075.42 698.19 1058.74 641.64 1055.27 637.42C1045.68 608.32 1003.14 594.64 996.02 632.96C989.62 648.42 1008.95 677.22 997.6 685.18C986.71 686.94 971.1 656.43 956.25 653.35C942.43 648.08 930.96 655.35 930.09 670.04C933.96 701.1 924.95 693.72 900.5 700.88C887.88 703.81 885.5 722.14 895.94 729.29C908.29 741.71 940.21 736.29 941.61 757.29C941.61 771.73 945.34 791.19 960.54 792.29C972.83 794.63 981.35 790.2 988.17 777.91C989.52 776.56 990.34 773.19 992.17 773.74C1005.17 777.55 1001.25 793.43 1003.61 806.83C1005.88 820.65 1023.67 827.94 1036.68 823.05C1036.46 822.939 1036.24 822.812 1036.04 822.67C1036.24 822.812 1036.46 822.939 1036.68 823.05C1047.9 819.16 1056.13 809.05 1061.38 798.36C1066.82 779.5 1080.29 751.25 1099.38 770.58L1105.18 778.43ZM987.9 777.64C987.76 777.46 987.62 777.27 987.47 777.1C987.62 777.27 987.76 777.46 987.9 777.64Z" fill="#B53A25" class="crCpaCEk_97"></path><path d="M1408 730.15C1400 724.49 1398.78 733.67 1395.21 738.41C1391.64 743.15 1384.11 745.96 1379.13 749.2C1375.95 751.26 1369.68 754.67 1365.05 759.05C1358.33 765.4 1354.49 779.58 1359.13 785.55C1369.62 784.91 1378.82 783.45 1395.77 784.19C1402.38 784.48 1418.77 786.52 1425.42 786.62C1432.07 786.72 1444.68 790.21 1446.94 785.23C1451.05 776.23 1441.41 760.33 1434.04 753.67C1423.35 744.02 1420.04 746.94 1413.7 741.06C1409.4 737.09 1408 730.15 1408 730.15Z" fill="#A88771" class="crCpaCEk_98"></path><path d="M1504.79 743.25C1495.99 738.91 1496.24 748.17 1493.44 753.41C1490.64 758.65 1483.65 762.59 1479.24 766.56C1476.42 769.09 1470.76 773.44 1466.86 778.49C1461.22 785.8 1459.63 800.41 1465.14 805.58C1475.41 803.32 1484.27 800.44 1501.14 798.58C1507.71 797.84 1524.26 797.29 1530.8 796.36C1537.34 795.43 1550.39 796.91 1551.8 791.64C1554.45 782.07 1542.46 767.9 1534.14 762.47C1522.08 754.6 1519.26 758 1512.14 753.18C1507.29 749.89 1504.79 743.25 1504.79 743.25Z" fill="#A88771" class="crCpaCEk_99"></path><path d="M1404 859.05C1404 859.05 1348.44 837.88 1363.61 780.89L1441.96 781.76C1441.96 781.76 1453.54 831.39 1404 859.05Z" fill="#B8CDB4" class="crCpaCEk_100"></path><path d="M1520.91 871.2C1520.91 871.2 1462.73 858.94 1468.84 800.28L1546.37 789C1546.37 789 1565.57 836.17 1520.91 871.2Z" fill="#B8CDB4" class="crCpaCEk_101"></path><path d="M2662.68 200.85C2670.68 206.52 2671.9 197.33 2675.47 192.59C2679.04 187.85 2686.58 185.05 2691.56 181.81C2694.73 179.75 2701 176.33 2705.63 171.95C2712.35 165.61 2716.19 151.43 2711.55 145.46C2701.06 146.09 2691.86 147.56 2674.91 146.81C2668.3 146.52 2651.91 144.49 2645.26 144.39C2638.61 144.29 2626 140.79 2623.74 145.77C2619.63 154.77 2629.27 170.68 2636.64 177.33C2647.33 186.99 2650.64 184.07 2656.98 189.95C2661.25 193.91 2662.68 200.85 2662.68 200.85Z" fill="#A88771" class="crCpaCEk_102"></path><path d="M2666.68 72C2666.68 72 2722.24 93.17 2707.07 150.17L2628.73 149.29C2628.73 149.29 2617.11 99.61 2666.68 72Z" fill="#B8CDB4" class="crCpaCEk_103"></path><path d="M2565.86 187.75C2574.66 192.09 2574.42 182.84 2577.21 177.6C2580 172.36 2587 168.42 2591.41 164.44C2594.23 161.91 2599.89 157.56 2603.79 152.51C2609.43 145.2 2611.02 130.6 2605.51 125.42C2595.24 127.68 2586.39 130.56 2569.51 132.47C2562.94 133.21 2546.4 133.75 2539.85 134.68C2533.3 135.61 2520.26 134.13 2518.8 139.4C2516.15 148.97 2528.14 163.14 2536.46 168.57C2548.52 176.44 2551.34 173.04 2558.52 177.86C2563.36 181.12 2565.86 187.75 2565.86 187.75Z" fill="#A88771" class="crCpaCEk_104"></path><path d="M2549.74 59.8C2549.74 59.8 2607.92 72.06 2601.81 130.72L2524.28 142.05C2524.28 142.05 2505.08 94.84 2549.74 59.8Z" fill="#B8CDB4" class="crCpaCEk_105"></path><path d="M1621.37 452.12C1620.23 451.523 1619.02 451.051 1617.78 450.71C1601.58 448.12 1591.78 435.83 1593.55 419.48C1594.94 406.83 1596.26 394.16 1596.63 381.48C1596.91 372.15 1600.06 362.97 1598 353.55C1598.25 352.93 1598.5 352.31 1598.76 351.69C1596.85 351.69 1598.29 352.95 1598.02 353.56C1597.02 353.99 1595.86 354.36 1595.79 355.56C1595.18 366.08 1590.79 375.65 1588.28 385.69C1585.49 396.79 1582.06 407.69 1579.02 418.78C1578.06 422.435 1576.36 425.853 1574.01 428.816C1571.67 431.78 1568.74 434.226 1565.4 436C1553.67 442.62 1538.09 440 1529.92 429.63C1520.92 418.28 1520.87 401.38 1531.09 392.43C1547.31 378.22 1562.76 363.01 1580.82 350.99C1583.31 349.33 1583.88 347.34 1583.39 343.61C1566.39 354.44 1549.09 362.84 1532.57 372.61C1523.57 377.9 1514.57 382.97 1503.49 381.14C1489.05 378.74 1478.74 363.65 1481.04 348.41C1483.04 334.87 1498.83 323.12 1512.72 325.03C1532.08 327.7 1551.62 328.17 1571.05 329.95C1572.58 330.09 1574.19 330.64 1575.14 328.72C1574.79 326.63 1572.86 326.85 1571.5 326.45C1553.02 321.11 1534.58 315.64 1516.02 310.6C1495.51 305.03 1487.08 282.4 1500.29 265.9C1510.94 252.61 1530.48 250.96 1542.01 263.84C1550.17 272.95 1558.15 282.24 1566.01 291.58C1572.01 298.68 1577.28 306.79 1585.18 312.45C1586.66 309.77 1585.18 308.15 1584.18 306.35C1574.87 289.5 1565.44 272.71 1556.37 255.73C1550.31 244.4 1550.63 233.38 1559.01 222.96C1565.85 214.45 1577.91 211.07 1590.23 214.73C1599.07 217.37 1606.31 226.94 1607.6 236.68C1609.23 249.01 1606.41 261.07 1605.93 273.27C1605.51 283.99 1604.75 294.69 1604.12 305.78C1606.71 305 1607.29 303.71 1607.61 302.51C1611.91 286.7 1615.86 270.78 1620.47 255.05C1623.59 244.41 1626.29 233.41 1638.25 228.15C1650.21 222.89 1663.25 225.29 1672.18 235.48C1680.05 244.42 1680.91 258.64 1674.12 268.97C1670.36 274.69 1664.63 278.42 1659.52 282.72C1645.33 294.66 1631.1 306.54 1617.77 319.63C1620 321.31 1621.18 320.06 1622.5 319.3C1641.43 308.37 1660.37 297.49 1679.61 287.1C1697.2 277.59 1719.38 287.91 1721.31 309C1722.84 325.69 1708.79 340.66 1693.31 339.33C1673.43 337.61 1653.48 336.52 1633.55 335.45C1630.44 335.29 1627.33 332.03 1623.42 335.72C1642.29 342.13 1661.06 347.22 1679.91 351.78C1694.8 355.38 1706.14 364.39 1708.46 377.15C1710.24 386.94 1703.2 401.79 1694.78 405.97C1682.78 411.97 1667.9 410.21 1660.07 401.29C1646.32 385.63 1632.9 369.67 1619.29 353.89C1617.79 352.15 1616.81 349.54 1612.96 349.2C1623.23 367.92 1633.22 385.79 1642.9 403.83C1655.73 427.77 1650.78 433.32 1638.38 447.19C1632.92 449.56 1627.49 452 1621.37 452.12ZM1618.51 329.92C1616.4 320.03 1607.51 314.2 1598.19 316.56C1590.13 318.56 1584.35 328.39 1586.25 336.79C1588.15 345.19 1597.5 350.63 1606.25 348.59C1615.21 346.52 1620.37 338.64 1618.51 329.92Z" fill="#B8CDB4" class="crCpaCEk_106"></path><path d="M1607.83 354.77C1620.21 351.89 1627.37 340.98 1624.83 328.9C1621.9 315.19 1609.62 307.11 1596.67 310.38C1585.49 313.2 1577.48 326.77 1580.13 338.38C1582.78 349.99 1595.68 357.59 1607.83 354.77Z" fill="#F74700" class="crCpaCEk_107"></path><path d="M3280.41 775C3305.41 786 3322.31 804.16 3329.68 830.16C3334.85 848.42 3316.68 864.16 3297.73 858.03C3282.85 853.22 3273.73 842.25 3269.94 827.44C3266.21 812.96 3266.41 798.04 3267.5 783.2C3268.14 774.63 3271.8 770.4 3280.41 775Z" fill="#F74700" class="crCpaCEk_108"></path><path d="M3273 190C3297.53 178 3313.74 159.23 3320.09 133C3324.55 114.55 3305.73 99.5601 3287.09 106.39C3272.42 111.77 3263.75 123.09 3260.52 138.04C3257.35 152.65 3258.12 167.55 3259.79 182.33C3260.72 190.91 3264.54 195 3273 190Z" fill="#F74700" class="crCpaCEk_109"></path><path d="M763.83 775C738.83 786 721.93 804.16 714.57 830.16C709.39 848.42 727.57 864.16 746.52 858.03C761.39 853.22 770.52 842.25 774.3 827.44C778.03 812.96 777.84 798.04 776.74 783.2C776.11 774.63 772.45 770.4 763.83 775Z" fill="#F74700" class="crCpaCEk_110"></path><path d="M771.27 190C746.74 178 730.54 159.23 724.19 133C719.72 114.55 738.54 99.5601 757.19 106.39C771.87 111.77 780.53 123.09 783.77 138.04C786.93 152.65 786.16 167.55 784.49 182.33C783.52 190.91 779.7 195 771.27 190Z" fill="#F74700" class="crCpaCEk_111"></path><path d="M2428.54 470.19C2429.68 470.787 2430.89 471.259 2432.13 471.6C2448.33 474.19 2458.13 486.48 2456.37 502.82C2454.98 515.48 2453.66 528.15 2453.28 540.82C2453 550.15 2449.85 559.33 2451.92 568.75C2451.66 569.37 2451.41 569.98 2451.16 570.6C2453.06 570.6 2451.63 569.35 2451.9 568.74C2452.85 568.31 2454.06 567.94 2454.12 566.74C2454.74 556.22 2459.12 546.64 2461.63 536.61C2464.42 525.5 2467.85 514.61 2470.89 503.52C2471.84 499.851 2473.54 496.419 2475.89 493.442C2478.23 490.466 2481.17 488.01 2484.52 486.23C2496.24 479.6 2511.82 482.23 2520 492.6C2528.94 503.95 2529 520.85 2518.82 529.8C2502.6 544.01 2487.16 559.22 2469.1 571.23C2466.6 572.9 2466.03 574.89 2466.52 578.62C2483.52 567.79 2500.82 559.39 2517.34 549.62C2526.34 544.32 2535.34 539.26 2546.43 541.09C2560.86 543.48 2571.17 558.58 2568.87 573.82C2566.87 587.35 2551.09 599.1 2537.2 597.19C2517.83 594.53 2498.29 594.06 2478.86 592.28C2477.34 592.14 2475.72 591.58 2474.77 593.5C2475.12 595.59 2477.05 595.38 2478.41 595.78C2496.89 601.12 2515.34 606.59 2533.9 611.63C2554.4 617.19 2562.83 639.83 2549.62 656.33C2538.97 669.62 2519.44 671.27 2507.9 658.39C2499.74 649.28 2491.77 639.99 2483.9 630.65C2477.9 623.55 2472.63 615.44 2464.72 609.78C2463.24 612.46 2464.72 614.08 2465.72 615.88C2475.03 632.73 2484.46 649.52 2493.54 666.5C2499.59 677.83 2499.27 688.84 2490.89 699.27C2484.05 707.78 2471.99 711.16 2459.68 707.49C2450.83 704.86 2443.59 695.29 2442.31 685.55C2440.67 673.21 2443.49 661.15 2443.97 648.96C2444.39 638.24 2445.15 627.54 2445.78 616.45C2443.2 617.23 2442.61 618.52 2442.29 619.72C2437.99 635.53 2434.04 651.45 2429.43 667.17C2426.31 677.82 2423.61 688.82 2411.65 694.08C2399.69 699.34 2386.65 696.94 2377.72 686.75C2369.85 677.81 2368.99 663.58 2375.78 653.26C2379.54 647.54 2385.27 643.81 2390.38 639.51C2404.57 627.51 2418.81 615.69 2432.13 602.59C2429.91 600.92 2428.72 602.16 2427.4 602.93C2408.48 613.86 2389.53 624.73 2370.3 635.13C2352.7 644.64 2330.52 634.32 2328.59 613.22C2327.07 596.54 2341.12 581.57 2356.59 582.9C2376.48 584.62 2396.42 585.71 2416.35 586.78C2419.47 586.94 2422.57 590.2 2426.48 586.51C2407.62 580.09 2388.84 575 2370 570.45C2355.1 566.85 2343.77 557.84 2341.44 545.08C2339.66 535.29 2346.7 520.44 2355.12 516.25C2367.12 510.25 2382 512.02 2389.84 520.94C2403.59 536.6 2417 552.56 2430.61 568.34C2432.11 570.07 2433.1 572.69 2436.94 573.03C2426.67 554.31 2416.68 536.44 2407.01 518.4C2394.17 494.46 2399.13 488.91 2411.52 475.04C2417 472.75 2422.42 470.27 2428.54 470.19ZM2431.4 592.39C2433.51 602.28 2442.4 608.11 2451.72 605.75C2459.79 603.75 2465.57 593.92 2463.66 585.52C2461.75 577.12 2452.41 571.68 2443.66 573.71C2434.71 575.79 2429.54 583.67 2431.4 592.39Z" fill="#B8CDB4" class="crCpaCEk_112"></path><path d="M2442.09 567.54C2429.7 570.41 2422.54 581.33 2425.09 593.41C2428.01 607.12 2440.29 615.19 2453.24 611.93C2464.42 609.11 2472.43 595.53 2469.79 583.93C2467.15 572.33 2454.23 564.71 2442.09 567.54Z" fill="#F74700" class="crCpaCEk_113"></path></svg>